<svg id="Layer_1" data-name="Layer 1" xmlns="http://www.w3.org/2000/svg" xmlns:xlink="http://www.w3.org/1999/xlink" viewBox="0 0 401.08 400" width="401.08" height="400"><defs><style>.cls-1,.cls-10,.cls-13,.cls-14,.cls-3,.cls-6,.cls-8{fill:none;}.cls-2{fill:#ebeef0;}.cls-3,.cls-6,.cls-7{stroke:#26c6da;}.cls-10,.cls-13,.cls-14,.cls-3,.cls-6,.cls-7,.cls-8{stroke-miterlimit:10;}.cls-14,.cls-3{stroke-width:1.68px;}.cls-4{fill:#a5d6a7;}.cls-5{fill:#eaeef2;}.cls-10,.cls-6,.cls-7,.cls-8{stroke-width:4.19px;}.cls-7{fill:#4071d9;}.cls-8{stroke:url(#New_Pattern_Swatch_2);}.cls-9{fill:#26c6da;}.cls-10{stroke:url(#New_Pattern_Swatch_2-3);}.cls-11{clip-path:url(#clip-path);}.cls-12{clip-path:url(#clip-path-2);}.cls-13{stroke:#a5d6a7;stroke-width:1.99px;}.cls-14{stroke:#fff;}</style><pattern id="New_Pattern_Swatch_2" data-name="New Pattern Swatch 2" width="70" height="70" patternTransform="translate(794.29 -1123.96) rotate(180)" patternUnits="userSpaceOnUse" viewBox="0 0 70 70"><rect class="cls-1" width="70" height="70"/><rect class="cls-2" width="70" height="70"/></pattern><pattern id="New_Pattern_Swatch_2-3" data-name="New Pattern Swatch 2" width="70" height="70" patternTransform="translate(2490.51 33.81) rotate(-116.59)" patternUnits="userSpaceOnUse" viewBox="0 0 70 70"><rect class="cls-1" width="70" height="70"/><rect class="cls-2" width="70" height="70"/></pattern><clipPath id="clip-path"><circle class="cls-1" cx="100.19" cy="357.09" r="28.91"/></clipPath><clipPath id="clip-path-2"><circle class="cls-1" cx="471.77" cy="-29.95" r="28.91"/></clipPath></defs><title>industry-right</title><path class="cls-3" d="M415-31.86s.19,213.81.19,224.22c0,10.06-.68,15-9.26,23.07-9.26,8.71-69.36,72.47-69.36,72.47-7,7-6.07,20.29-6.07,20.29v92.47"/><path class="cls-3" d="M9.85-28.86V123.82c0,10.06,10.52,18.54,10.52,18.54s55.1,48.1,73.74,66.74c7,7,6.07,20.29,6.07,20.29V335.47"/><rect class="cls-4" x="93.09" y="239.93" width="14.18" height="72.91" rx="7.09" ry="7.09" transform="translate(200.37 552.77) rotate(180)"/><rect class="cls-4" x="349.66" y="240.84" width="14.18" height="49.2" rx="7.09" ry="7.09" transform="translate(440.57 702.13) rotate(-137.52)"/><path class="cls-5" d="M33.85,220.58a19.56,19.56,0,0,1,0,39.13h0v9.36a28.46,28.46,0,0,0,27.5-20,28.92,28.92,0,1,0-55-17.87l8.9,2.89A19.57,19.57,0,0,1,33.85,220.58Z"/><path class="cls-4" d="M33.85,269.07v-9.36a19.57,19.57,0,0,1-18.6-25.6l-8.9-2.89a27.49,27.49,0,0,0-1.42,8.94A28.92,28.92,0,0,0,33.85,269.07Z"/><path class="cls-3" d="M275.75,401.82V295.75s-1-13.26,6.07-20.29h0l61.74-62.74s10.52-8.48,10.52-18.54V108.62s2.62-14.48-14.38-14.48h-26s-11,1-11-11v-120"/><path class="cls-3" d="M312.13,245.15H258.69s-7.5,0-12.38,4.17c-2.49,2.12-20.83,21.14-23.5,24.75a19.12,19.12,0,0,0-4.11,12.07c0,10,.45,56.6.45,56.6"/><path class="cls-3" d="M301.7,1.14h-134s-5.79,0-10,3.49a121.35,121.35,0,0,0-11.18,10.8c-7,7.49-11.44,12.13-14,15.87s-2.77,5.84-2.77,10.11l.38,68.92s-.19,54.15-.19,64.57c0,10.06.14,15.63,9.26,23.07C149.48,206.42,163,220.7,163,220.7c7,7,6.07,20.29,6.07,20.29V399.68"/><circle class="cls-5" cx="354.08" cy="147.57" r="23.26"/><circle class="cls-6" cx="219.14" cy="354.33" r="11.59"/><circle class="cls-7" cx="129.86" cy="149.83" r="11.59"/><path class="cls-8" d="M299.67,153.31h0A10.09,10.09,0,0,1,295,166.76l-70.82,34.52a10.09,10.09,0,0,1-13.45-4.63h0a10.09,10.09,0,0,1,4.63-13.45l70.82-34.52A10.09,10.09,0,0,1,299.67,153.31Z"/><circle class="cls-9" cx="509.28" cy="334.11" r="8.26" transform="translate(-95.69 263.33) rotate(-26.59)"/><circle class="cls-9" cx="220.28" cy="191.11" r="8.26" transform="translate(-62.25 118.83) rotate(-26.59)"/><path class="cls-10" d="M517.49,341h0a10.09,10.09,0,0,1-14.1,1.88L440.82,295a10.09,10.09,0,0,1-1.88-14.1h0A10.09,10.09,0,0,1,453,279l62.57,47.88A10.09,10.09,0,0,1,517.49,341Z"/><g class="cls-11"><rect class="cls-4" x="53.85" y="311.59" width="92.67" height="46.34" transform="translate(200.37 669.51) rotate(180)"/><rect class="cls-5" x="53.85" y="357.09" width="92.67" height="46.34" transform="translate(200.37 760.51) rotate(180)"/></g><path class="cls-3" d="M550.1,411V198.32c0-10.06-10.52-18.54-10.52-18.54L477.84,118h0c-7-7-6.07-20.29-6.07-20.29V-8.33"/><rect class="cls-4" x="464.68" y="14.3" width="14.18" height="72.91" rx="7.09" ry="7.09"/><g class="cls-12"><rect class="cls-4" x="425.43" y="-30.79" width="92.67" height="46.34"/></g><circle class="cls-4" cx="356.59" cy="47.35" r="6.12"/><line class="cls-13" x1="356.59" y1="19.94" x2="356.59" y2="44.53"/><line class="cls-14" x1="356.59" y1="-33.86" x2="356.59" y2="23.69"/><circle class="cls-4" cx="70.39" cy="103.67" r="6.12" transform="matrix(0, -1, 1, 0, -33.38, 173.91)"/><line class="cls-13" x1="70.44" y1="19.26" x2="70.4" y2="100.85"/><line class="cls-14" x1="70.52" y1="-47.54" x2="70.43" y2="20.01"/><line class="cls-3" x1="223.7" y1="99.14" x2="223.7" y2="1.14"/><rect class="cls-4" x="217.09" y="61.93" width="14.18" height="72.91" rx="7.09" ry="7.09" transform="translate(448.37 196.77) rotate(180)"/><path class="cls-3" d="M330.86,310.51h62.3s4.57-.21,7,2.2c2.58,2.58,11.73,11.43,12.67,12.43,2.3,2.43,2.47,4,2.47,7.64,0,4.2,0,31.7,0,31.7"/><circle class="cls-7" cx="415.28" cy="370.89" r="6.41"/><path class="cls-5" d="M483.69,237.19a19.56,19.56,0,0,1,0-39.13h0v-9.36a28.46,28.46,0,0,0-27.5,20,28.92,28.92,0,1,0,55,17.87l-8.9-2.89A19.57,19.57,0,0,1,483.69,237.19Z"/><path class="cls-4" d="M483.7,188.71v9.36a19.57,19.57,0,0,1,18.6,25.6l8.9,2.89a27.49,27.49,0,0,0,1.42-8.94A28.92,28.92,0,0,0,483.7,188.71Z"/></svg>
