<svg id="Layer_1" data-name="Layer 1" xmlns="http://www.w3.org/2000/svg" xmlns:xlink="http://www.w3.org/1999/xlink" viewBox="0 0 401.08 400" width="401.08" height="400"><defs><style>.cls-1,.cls-11,.cls-12,.cls-13,.cls-3,.cls-8,.cls-9{fill:none;}.cls-2{fill:#ebeef0;}.cls-13,.cls-3,.cls-6{stroke:#26c6da;}.cls-11,.cls-12,.cls-13,.cls-3,.cls-6,.cls-8,.cls-9{stroke-miterlimit:10;}.cls-12,.cls-3{stroke-width:1.68px;}.cls-4{fill:#a5d6a7;}.cls-5{fill:#eaeef2;}.cls-6{fill:#4071d9;}.cls-13,.cls-6,.cls-8,.cls-9{stroke-width:4.19px;}.cls-7{fill:#26c6da;}.cls-8{stroke:url(#New_Pattern_Swatch_2);}.cls-9{stroke:url(#New_Pattern_Swatch_2-3);}.cls-10{clip-path:url(#clip-path);}.cls-11{stroke:#a5d6a7;stroke-width:1.99px;}.cls-12{stroke:#fff;}</style><pattern id="New_Pattern_Swatch_2" data-name="New Pattern Swatch 2" width="70" height="70" patternTransform="translate(64.88 -1125.21) rotate(-19.51)" patternUnits="userSpaceOnUse" viewBox="0 0 70 70"><rect class="cls-1" width="70" height="70"/><rect class="cls-2" width="70" height="70"/></pattern><pattern id="New_Pattern_Swatch_2-3" data-name="New Pattern Swatch 2" width="70" height="70" patternTransform="translate(2205.9 684.86) rotate(70.49)" patternUnits="userSpaceOnUse" viewBox="0 0 70 70"><rect class="cls-1" width="70" height="70"/><rect class="cls-2" width="70" height="70"/></pattern><clipPath id="clip-path"><circle class="cls-1" cx="-5.59" cy="170.01" r="28.91"/></clipPath></defs><title>industry-left</title><path class="cls-3" d="M83.6,71.33s-.19,108.15-.19,118.57c0,10.06.14,15.63,9.26,23.07,10.34,8.44,23.81,22.73,23.81,22.73,7,7,6.07,20.29,6.07,20.29V414.68"/><path class="cls-3" d="M168.92,417.26s-.19-141.75-.19-152.17c0-10.06.14-15.63,9.26-23.07,10.34-8.44,69.36-72.47,69.36-72.47,7-7,6.07-20.29,6.07-20.29V-33.22"/><path class="cls-3" d="M-5.63-23.86v190.5c0,10.06,10.52,18.54,10.52,18.54l61.74,61.74h0c7,7,6.07,20.29,6.07,20.29V419.59"/><rect class="cls-4" x="65.61" y="277.74" width="14.18" height="72.91" rx="7.09" ry="7.09" transform="translate(145.41 628.4) rotate(180)"/><rect class="cls-4" x="220.1" y="167.41" width="14.18" height="49.2" rx="7.09" ry="7.09" transform="translate(189.32 -103.03) rotate(42.48)"/><path class="cls-3" d="M246.86,417.83V261.27c0-10.06,10.52-18.54,10.52-18.54L319.12,181h0c7-7,6.07-20.29,6.07-20.29V-35.37"/><circle class="cls-5" cx="246.86" cy="308.88" r="23.26"/><path class="cls-3" d="M177.64,117.51H144.76s-1.85,0-9.27,7.9-9.73,10.2-9.27,14.37,0,31.7,0,31.7"/><circle class="cls-6" cx="126.22" cy="177.89" r="6.41"/><path class="cls-3" d="M175.64,117.51h-2.88s-1.85,0-9.27,7.9-9.73,10.2-9.27,14.37,0,31.7,0,31.7"/><circle class="cls-6" cx="154.22" cy="177.89" r="6.41"/><circle class="cls-6" cx="83.39" cy="171.83" r="11.59"/><circle class="cls-6" cx="83.39" cy="134.35" r="11.59"/><circle class="cls-7" cx="329.77" cy="292.79" r="8.26" transform="translate(-78.85 126.95) rotate(-19.51)"/><path class="cls-8" d="M321.89,300.08h0a10.09,10.09,0,0,1-.12-14.22L377,229.67a10.09,10.09,0,0,1,14.22-.12h0a10.09,10.09,0,0,1,.12,14.22L336.11,300A10.09,10.09,0,0,1,321.89,300.08Z"/><circle class="cls-7" cx="55.58" cy="27.03" r="8.26" transform="translate(-5.84 20.12) rotate(-19.51)"/><path class="cls-9" d="M48.29,19.16h0A10.09,10.09,0,0,1,62.51,19L118.7,74.26a10.09,10.09,0,0,1,.12,14.22h0a10.09,10.09,0,0,1-14.22.12L48.41,33.38A10.09,10.09,0,0,1,48.29,19.16Z"/><g class="cls-10"><rect class="cls-4" x="-51.93" y="124.51" width="92.67" height="46.34" transform="translate(-11.18 295.36) rotate(180)"/><rect class="cls-5" x="-51.93" y="170.01" width="92.67" height="46.34" transform="translate(-11.18 386.36) rotate(180)"/></g><circle class="cls-4" cx="326.4" cy="340.61" r="6.12"/><line class="cls-11" x1="326.4" y1="368.02" x2="326.4" y2="343.43"/><line class="cls-12" x1="326.4" y1="421.82" x2="326.4" y2="364.27"/><circle class="cls-4" cx="371.36" cy="340.61" r="6.12"/><line class="cls-11" x1="371.36" y1="368.02" x2="371.36" y2="343.43"/><line class="cls-12" x1="371.36" y1="421.82" x2="371.36" y2="364.27"/><circle class="cls-4" cx="178.36" cy="18.61" r="6.12"/><line class="cls-11" x1="178.36" y1="46.02" x2="178.36" y2="21.43"/><line class="cls-12" x1="178.36" y1="99.82" x2="178.36" y2="42.27"/><circle class="cls-5" cx="176.86" cy="115.88" r="23.26" transform="translate(-16.97 31.4) rotate(-9.68)"/><path class="cls-3" d="M302.49,196.93h43.44s7.5,0,12.38-4.17c2.49-2.12,20.83-21.14,23.5-24.75a19.12,19.12,0,0,0,4.11-12.07c0-10-.45-56.6-.45-56.6"/><circle class="cls-13" cx="385.49" cy="87.74" r="11.59"/><path class="cls-3" d="M73.08,390.93H19.64s-7.5,0-12.38-4.17c-2.49-2.12-20.83-21.14-23.5-24.75a19.12,19.12,0,0,1-4.11-12.07c0-10,.45-56.6.45-56.6"/><path class="cls-3" d="M385.64,76.14v-30c0-8-1-8-14-21s-15-13-21-13h-25.4"/></svg>
