<svg width="760" height="336" viewBox="0 0 760 336" fill="none" xmlns="http://www.w3.org/2000/svg">
<path d="M394.203 303.295C395.822 312.702 397.024 321.431 398.121 330.932C398.395 333.31 399.638 336.582 402.698 335.874C406.6 334.972 406.591 329.255 406.591 326.179C406.591 318.607 402.002 305.826 394.203 303.295ZM361.784 303.295C353.984 305.826 349.396 318.607 349.396 326.179C349.396 329.255 349.385 334.972 353.288 335.874C356.349 336.582 357.591 333.31 357.866 330.932C358.962 321.431 360.164 312.702 361.784 303.295ZM377.993 272.783C370.848 283.406 362.292 301.623 363.866 314.737C364.719 321.843 369.931 330.318 377.993 330.318C386.055 330.318 391.267 321.843 392.12 314.737C393.684 301.706 385.099 283.346 377.993 272.783ZM377.04 281.364H378.947C382.517 289.387 387.106 300.381 385.006 309.288C384.235 312.561 382.074 317.945 377.993 317.945C373.855 317.945 371.739 312.48 370.98 309.178C368.865 299.976 373.801 289.76 377.04 281.364ZM385.621 284.225C391.83 295.378 401.091 306.606 413.273 311.42C416.758 312.797 426.086 314.847 427.717 309.832C428.842 306.376 425.563 303.984 422.794 302.877C414.197 299.444 405.898 297.795 398.017 292.463C393.955 289.716 390.656 284.147 385.621 284.225ZM378.947 292.806H377.04C374.488 296.85 367.628 312.394 377.993 312.394C388.359 312.394 381.498 296.85 378.947 292.806ZM370.365 284.225C365.331 284.147 362.031 289.716 357.97 292.463C350.088 297.795 341.79 299.444 333.193 302.877C330.423 303.984 327.145 306.376 328.269 309.832C329.9 314.847 339.228 312.797 342.713 311.42C354.895 306.606 364.156 295.378 370.365 284.225ZM377.04 304.248V296.62H378.947V304.248H377.04ZM567.741 250.852V249.899C588.796 238.944 608.079 229 632.579 231.624C644.435 232.894 656.435 237.54 662.138 248.945C669.18 263.029 654.065 274.857 641.16 269.922V268.969C653.208 268.834 660.251 254.977 648.7 247.366C633.756 237.521 619.113 260.788 626.241 273.732C635.37 290.314 658.533 288.876 670.432 276.431C677.73 268.799 679.237 258.927 677.121 248.945C672.931 229.19 653.665 220.77 635.439 219.305C602.548 216.661 561.901 231.331 544.856 261.341C540.63 251.806 537.758 243.876 529.6 236.726C510.25 219.765 477.395 220.901 455.227 231.123C443.346 236.602 435.776 246.035 425.668 253.713C431.1 245.158 447.219 238.394 448.956 228.925C450.396 221.072 440.654 221.299 436.243 224.7C429.646 229.785 426.522 240.183 424.715 247.992H423.761C423.761 241.366 424.052 234.207 418.79 229.25C415.803 226.437 410.112 224.587 407.592 229.063C404.036 235.38 411.875 245.716 411.197 252.759C410.201 263.097 402.859 265.231 398.017 272.783C411.04 272.107 414.281 258.872 424.715 255.62C415.388 264.947 390.96 288.368 382.064 264.201C379.003 255.888 388.543 251.686 395.156 252.759V253.713C384.126 255.43 388.391 270.184 396.959 265.791C407.758 260.253 394.609 244.459 384.71 250.717C368.085 261.224 388.143 280.123 401.831 278.217C418.142 275.945 427.771 262.681 439.972 253.236C461.741 236.383 500.125 225.548 522.069 248.483C528.916 255.639 534.294 267.38 528.186 276.582C524.21 282.574 511.768 289.908 508.623 279.457C519.054 278.292 520.783 266.162 512.349 260.527C502.562 253.99 491.35 262.08 490.599 272.783C489.819 283.921 497.538 292.896 507.67 296.333C515.529 299 524.775 297.866 531.504 293.007C540.597 286.44 540.014 274.305 547.896 267.921C566.619 252.756 612.502 251.499 605.881 286.132C600.092 276.364 583.217 270.098 581.22 287.085C579.052 305.545 603.519 307.19 613.195 296.521C626.621 281.715 616.203 259.097 600.16 251.711C590.068 247.066 578.227 248.689 567.741 250.852V250.852ZM151.059 286.132H150.106C143.503 251.598 190.674 251.942 209.005 268.596C216.227 275.156 215.556 286.56 224.483 293.007C231.212 297.866 240.458 299 248.316 296.333C258.448 292.896 266.167 283.921 265.387 272.783C264.637 262.08 253.424 253.99 243.638 260.527C235.203 266.162 236.933 278.292 247.363 279.457C244.218 289.908 231.776 282.574 227.8 276.582C221.693 267.38 227.07 255.639 233.918 248.483C255.881 225.528 294.217 236.367 316.014 253.236C328.135 262.615 337.893 276.167 354.155 278.227C367.752 279.949 388.004 261.29 371.277 250.717C361.377 244.46 348.229 260.253 359.027 265.791C367.595 270.184 371.86 255.43 360.83 253.713V252.759C367.444 251.686 376.983 255.888 373.923 264.201C365.026 288.368 340.599 264.947 331.271 255.62C341.706 258.872 344.947 272.107 357.97 272.783C353.263 265.442 345.755 262.769 344.789 252.759C344.11 245.716 351.95 235.38 348.394 229.063C345.875 224.589 340.181 226.434 337.196 229.25C332.068 234.088 332.226 241.502 332.225 247.992H331.271C329.434 240.237 326.296 229.751 319.744 224.7C315.791 221.653 306.381 220.701 306.898 227.982C307.443 235.655 315.563 238.131 320.697 242.198C325.035 245.635 328.033 250.263 331.271 254.666C320.717 246.826 313.104 236.817 300.759 231.123C278.576 220.894 245.765 219.739 226.386 236.726C218.229 243.876 215.357 251.806 211.13 261.341C194.069 231.303 153.469 216.659 120.547 219.305C102.322 220.77 83.0551 229.19 78.8654 248.945C76.6533 259.38 78.5154 269.642 86.3866 277.374C98.3531 289.128 120.958 289.689 129.745 273.732C136.87 260.797 122.179 237.555 107.286 247.366C95.7348 254.977 102.778 268.834 114.826 268.969V269.922C101.921 274.857 86.8071 263.029 93.8487 248.945C99.5516 237.54 111.552 232.894 123.407 231.624C147.929 228.997 167.152 238.974 188.246 249.899C178.346 250.783 168.612 247.033 158.687 250.566C140.657 256.983 127.341 283.237 144.473 298.166C154.768 307.137 176.797 304.372 174.766 287.085C173.046 272.449 154.838 273.411 151.059 286.132V286.132ZM379.9 272.783C386.996 284.402 401.027 285.713 413.273 283.07C437.125 277.921 454.411 257.505 479.065 254.62C488.695 253.492 498.132 256.593 507.666 255.516C511.507 255.082 515.052 252.308 513.595 248.032C509.165 235.033 481.979 239.284 472.39 241.542C446.516 247.635 430.135 278.201 403.738 280.322C394.071 281.098 388.384 275.994 379.9 272.783ZM376.086 272.783C367.602 275.994 361.915 281.098 352.249 280.322C325.64 278.183 309.811 247.115 283.596 241.59C273.864 239.539 246.918 234.751 242.391 248.032C240.746 252.862 245.195 255.328 249.271 255.578C258.939 256.17 268.141 253.509 277.875 254.718C302.083 257.725 319.204 277.995 342.713 283.07C355.029 285.729 368.824 284.347 376.086 272.783ZM424.715 254.666L425.668 253.713L424.715 254.666Z" fill="url(#paint0_angular)"/>
<path d="M60.2305 66.4L61.7937 67.6475L61.8125 67.624L61.8305 67.6L60.2305 66.4ZM37.4305 106L35.5448 105.333L34.6021 108H37.4305V106ZM69.4305 106.2L69.3306 108.198L69.3805 108.2H69.4305V106.2ZM74.6305 104.8L76.5278 105.432L76.6756 104.989L76.6116 104.526L74.6305 104.8ZM69.2305 71.4L67.2781 71.8339L67.2802 71.8432L69.2305 71.4ZM42.4305 160.6V162.6H42.6108L42.7882 162.568L42.4305 160.6ZM46.8305 159.8V157.8H46.6501L46.4727 157.832L46.8305 159.8ZM46.0305 173.8L44.3029 172.792L44.3029 172.792L46.0305 173.8ZM39.0305 180.6L38.1706 178.794L38.1532 178.803L38.136 178.811L39.0305 180.6ZM13.6305 177.2L11.9591 178.298L11.9664 178.31L11.9739 178.321L13.6305 177.2ZM16.6305 120.2L18.5227 120.848L19.4291 118.2H16.6305V120.2ZM6.23047 111L7.86252 112.156L7.87357 112.14L7.88432 112.125L6.23047 111ZM22.4305 106V108H23.7244L24.2547 106.82L22.4305 106ZM55.8305 51.4L57.3658 52.6817L57.3669 52.6804L55.8305 51.4ZM68.0305 40.2L66.8806 38.5636L66.87 38.571L66.8595 38.5786L68.0305 40.2ZM85.4305 38.6L83.6822 39.5713L83.7051 39.6126L83.7299 39.6527L85.4305 38.6ZM97.6305 100L99.6195 99.7906L99.6167 99.7643L99.6133 99.7381L97.6305 100ZM105.83 147.2L103.885 147.663L103.887 147.672L103.889 147.681L105.83 147.2ZM116.83 175.4L115.581 176.962L115.649 177.016L115.721 177.064L116.83 175.4ZM109.43 183L108.852 181.086L108.839 181.089L109.43 183ZM89.6305 184.4L90.5249 182.611L90.4633 182.58L90.3997 182.554L89.6305 184.4ZM86.6305 182.2L84.8146 183.038L84.8276 183.066L84.8416 183.094L86.6305 182.2ZM79.4305 145L81.4157 144.757L81.4144 144.747L79.4305 145ZM78.2305 135.6L76.2377 135.77L76.2412 135.812L76.2466 135.853L78.2305 135.6ZM76.6305 121.4L78.6033 121.071L78.4671 120.254L77.7929 119.773L76.6305 121.4ZM75.2305 120.4L76.3929 118.773L75.8757 118.403L75.24 118.4L75.2305 120.4ZM33.4305 120.2L33.44 118.2L31.8482 118.192L31.4836 119.742L33.4305 120.2ZM31.4305 149.2L29.4427 149.421L29.4498 149.485L29.4609 149.548L31.4305 149.2ZM34.8305 156.6L36.4689 155.453L36.4689 155.453L34.8305 156.6ZM58.6672 65.1525C48.0226 78.492 40.2994 91.8849 35.5448 105.333L39.3161 106.667C43.8949 93.7151 51.3717 80.708 61.7937 67.6475L58.6672 65.1525ZM37.4305 108H37.6305V104H37.4305V108ZM37.6305 108C56.199 108 66.7284 108.067 69.3306 108.198L69.5304 104.202C66.7992 104.066 56.1286 104 37.6305 104V108ZM69.4305 108.2C70.8498 108.2 72.0008 108.167 72.8537 108.092C73.2751 108.056 73.6782 108.005 74.0268 107.927C74.2008 107.889 74.4062 107.834 74.6139 107.751C74.7927 107.679 75.1336 107.525 75.4447 107.214L72.6163 104.386C72.8607 104.141 73.0953 104.05 73.1283 104.037C73.1902 104.012 73.2102 104.011 73.1591 104.023C73.0578 104.045 72.8525 104.077 72.5072 104.108C71.8268 104.167 70.8112 104.2 69.4305 104.2V108.2ZM75.4447 107.214C75.9557 106.703 76.308 106.092 76.5278 105.432L72.7331 104.168C72.6862 104.308 72.6386 104.363 72.6163 104.386L75.4447 107.214ZM76.6116 104.526C74.3462 88.1349 72.5359 76.9196 71.1807 70.9567L67.2802 71.8432C68.5917 77.6138 70.3814 88.6651 72.6493 105.074L76.6116 104.526ZM71.1828 70.9661C70.5076 67.9277 69.8069 65.5225 69.0581 63.8377C68.6871 63.003 68.2546 62.2292 67.7253 61.6338C67.2052 61.0487 66.3722 60.4 65.2305 60.4V64.4C64.7554 64.4 64.5891 64.1263 64.7357 64.2912C64.873 64.4458 65.1072 64.797 65.4028 65.4623C65.9874 66.7775 66.62 68.8723 67.2781 71.8339L71.1828 70.9661ZM65.2305 60.4C63.9077 60.4 62.7203 61.0469 61.7311 61.8383C60.7141 62.6518 59.6818 63.7982 58.6305 65.2L61.8305 67.6C62.7791 66.3351 63.5802 65.4815 64.2299 64.9617C64.9073 64.4197 65.2199 64.4 65.2305 64.4V60.4ZM42.7882 162.568L47.1882 161.768L46.4727 157.832L42.0727 158.632L42.7882 162.568ZM46.8305 161.8C46.9857 161.8 47.0352 161.822 47.017 161.815C47.0063 161.811 46.9809 161.801 46.9475 161.779C46.9137 161.756 46.8802 161.728 46.8506 161.695C46.788 161.626 46.7805 161.581 46.7914 161.618C46.8046 161.661 46.8305 161.778 46.8305 162H50.8305C50.8305 161.003 50.608 159.882 49.8104 159.005C48.9799 158.091 47.8572 157.8 46.8305 157.8V161.8ZM46.8305 162C46.8305 166.403 45.9504 169.968 44.3029 172.792L47.758 174.808C49.8439 171.232 50.8305 166.93 50.8305 162H46.8305ZM44.3029 172.792C42.5986 175.714 40.542 177.665 38.1706 178.794L39.8903 182.406C43.119 180.868 45.729 178.286 47.758 174.808L44.3029 172.792ZM38.136 178.811C33.7351 181.012 30.1905 182 27.4305 182V186C31.0704 186 35.2591 184.722 39.9249 182.389L38.136 178.811ZM27.4305 182C21.8673 182 17.9321 179.989 15.287 176.079L11.9739 178.321C15.4622 183.477 20.7269 186 27.4305 186V182ZM15.3019 176.102C12.5475 171.91 11.0305 165.438 11.0305 156.4H7.03047C7.03047 165.762 8.5801 173.156 11.9591 178.298L15.3019 176.102ZM11.0305 156.4C11.0305 147.386 13.4859 135.56 18.5227 120.848L14.7383 119.552C9.64166 134.44 7.03047 146.747 7.03047 156.4H11.0305ZM16.6305 118.2H5.03047V122.2H16.6305V118.2ZM5.03047 118.2C4.8245 118.2 4.7257 118.174 4.70042 118.165C4.68484 118.16 4.73369 118.175 4.79468 118.236C4.85568 118.297 4.87053 118.346 4.86534 118.33C4.85691 118.305 4.83047 118.206 4.83047 118H0.830469C0.830469 119.042 1.09223 120.19 1.96625 121.064C2.84028 121.938 3.98885 122.2 5.03047 122.2V118.2ZM4.83047 118C4.83047 117.72 4.95833 117.097 5.47949 116.024C5.98072 114.992 6.76392 113.707 7.86252 112.156L4.59842 109.844C3.43035 111.493 2.51355 112.975 1.88145 114.276C1.26927 115.537 0.830469 116.814 0.830469 118H4.83047ZM7.88432 112.125C10.0051 109.006 11.88 108 13.4305 108V104C9.91432 104 6.98913 106.328 4.57662 109.875L7.88432 112.125ZM13.4305 108H22.4305V104H13.4305V108ZM24.2547 106.82C33.658 85.8942 44.6993 67.8551 57.3658 52.6817L54.2951 50.1183C41.3616 65.6116 30.1363 83.9725 20.6062 105.18L24.2547 106.82ZM57.3669 52.6804C60.5797 48.825 64.5189 45.2032 69.2015 41.8213L66.8595 38.5786C61.9421 42.1301 57.7479 45.975 54.294 50.1196L57.3669 52.6804ZM69.1804 41.8364C71.5864 40.1456 73.6597 38.9182 75.4105 38.1196C77.1819 37.3116 78.4998 37 79.4305 37V33C77.6945 33 75.779 33.5551 73.7505 34.4804C71.7012 35.4151 69.4079 36.7877 66.8806 38.5636L69.1804 41.8364ZM79.4305 37C80.4543 37 81.2548 37.227 81.9015 37.615C82.5512 38.0048 83.1555 38.6233 83.6822 39.5713L87.1788 37.6287C86.3721 36.1767 85.3098 34.9952 83.9595 34.185C82.6062 33.373 81.0733 33 79.4305 33V37ZM83.7299 39.6527C84.445 40.8078 85.2889 42.9154 86.2216 46.1428C87.1415 49.3258 88.108 53.4527 89.1188 58.5398C91.1399 68.7114 93.3167 82.6127 95.6477 100.262L99.6133 99.7381C97.2776 82.054 95.0877 68.0552 93.0421 57.7602C92.0196 52.614 91.0278 48.3658 90.0643 45.0322C89.1137 41.7429 88.1493 39.1922 87.131 37.5473L83.7299 39.6527ZM95.6415 100.209C97.2512 115.502 100 131.32 103.885 147.663L107.776 146.737C103.928 130.547 101.21 114.898 99.6195 99.7906L95.6415 100.209ZM103.889 147.681C105.899 155.785 107.839 162.262 109.717 167.077C110.656 169.484 111.594 171.514 112.538 173.141C113.469 174.745 114.47 176.073 115.581 176.962L118.08 173.838C117.524 173.393 116.817 172.546 115.998 171.134C115.192 169.744 114.338 167.916 113.444 165.623C111.655 161.038 109.762 154.748 107.772 146.719L103.889 147.681ZM115.721 177.064C115.932 177.204 116 177.302 116.015 177.329C116.023 177.342 116.025 177.349 116.026 177.351C116.027 177.354 116.03 177.368 116.03 177.4H120.03C120.03 175.79 119.167 174.554 117.94 173.736L115.721 177.064ZM116.03 177.4C116.03 177.406 116.03 177.422 116.017 177.459C116.002 177.499 115.968 177.574 115.886 177.684C115.716 177.914 115.384 178.237 114.789 178.624C113.59 179.405 111.651 180.239 108.852 181.086L110.009 184.914C112.943 184.027 115.304 183.062 116.972 181.976C118.568 180.937 120.03 179.447 120.03 177.4H116.03ZM108.839 181.089C103.29 182.807 99.1891 183.6 96.4305 183.6V187.6C99.8052 187.6 104.371 186.66 110.022 184.911L108.839 181.089ZM96.4305 183.6C93.6322 183.6 91.7242 183.211 90.5249 182.611L88.736 186.189C90.7368 187.189 93.3621 187.6 96.4305 187.6V183.6ZM90.3997 182.554C88.8837 181.922 88.4785 181.424 88.4193 181.306L84.8416 183.094C85.5825 184.576 87.1772 185.544 88.8612 186.246L90.3997 182.554ZM88.4464 181.362C87.3555 178.998 86.191 174.805 84.994 168.62C83.8063 162.483 82.6128 154.533 81.4156 144.757L77.4453 145.243C78.6482 155.067 79.8547 163.117 81.0669 169.38C82.2699 175.595 83.5055 180.202 84.8146 183.038L88.4464 181.362ZM81.4144 144.747L80.2144 135.347L76.2466 135.853L77.4466 145.253L81.4144 144.747ZM80.2233 135.43C79.6888 129.15 79.1501 124.352 78.6033 121.071L74.6577 121.729C75.1775 124.848 75.7055 129.517 76.2377 135.77L80.2233 135.43ZM77.7929 119.773L76.3929 118.773L74.068 122.027L75.468 123.027L77.7929 119.773ZM75.24 118.4L33.44 118.2L33.4209 122.2L75.2209 122.4L75.24 118.4ZM31.4836 119.742C29.8606 126.64 29.0305 132.733 29.0305 138H33.0305C33.0305 133.133 33.8004 127.36 35.3773 120.658L31.4836 119.742ZM29.0305 138C29.0305 143.079 29.1631 146.905 29.4427 149.421L33.4182 148.979C33.1645 146.695 33.0305 143.055 33.0305 138H29.0305ZM29.4609 149.548C29.9281 152.195 31.2226 154.933 33.192 157.747L36.4689 155.453C34.705 152.933 33.7328 150.738 33.4 148.852L29.4609 149.548ZM33.192 157.747C35.4252 160.937 38.5645 162.6 42.4305 162.6V158.6C39.8964 158.6 37.969 157.596 36.4689 155.453L33.192 157.747ZM183.879 127.4L181.883 127.269L181.871 127.448L181.892 127.627L183.879 127.4ZM184.679 134.4H186.679V134.286L186.666 134.173L184.679 134.4ZM164.279 120L166.192 120.582L166.192 120.582L164.279 120ZM163.679 106.2L162.094 107.419L162.117 107.45L162.142 107.48L163.679 106.2ZM151.279 106.4L149.865 104.986L149.865 104.986L151.279 106.4ZM148.079 111.8L150.002 112.349L150.02 112.285L150.035 112.219L148.079 111.8ZM147.279 114.6L145.356 114.051L145.332 114.134L145.315 114.22L147.279 114.6ZM146.479 158.2L144.481 158.295L144.481 158.297L146.479 158.2ZM147.279 169.6L145.294 169.848L145.295 169.856L145.296 169.864L147.279 169.6ZM141.479 181.2L140.608 179.4L140.585 179.411L140.562 179.423L141.479 181.2ZM122.879 181.8L120.904 181.482L120.879 181.64V181.8H122.879ZM123.879 175.6L125.853 175.918L125.854 175.918L123.879 175.6ZM124.679 92.2H122.679V92.398L122.718 92.5922L124.679 92.2ZM143.279 97.2L145.219 96.7149L145.169 96.5126L145.077 96.3251L143.279 97.2ZM146.679 96.2L145.412 94.6521L145.412 94.6521L146.679 96.2ZM173.479 93L174.227 91.1453L174.219 91.1419L174.21 91.1385L173.479 93ZM184.879 112.2L186.875 112.331L186.879 112.266V112.2H184.879ZM181.892 127.627L182.692 134.627L186.666 134.173L185.866 127.173L181.892 127.627ZM182.679 134.4C182.679 134.705 182.611 134.879 182.538 134.995C182.46 135.118 182.3 135.294 181.945 135.481C181.177 135.887 179.768 136.2 177.479 136.2V140.2C179.99 140.2 182.181 139.88 183.812 139.019C184.658 138.573 185.398 137.957 185.92 137.13C186.447 136.296 186.679 135.362 186.679 134.4H182.679ZM177.479 136.2C172.806 136.2 169.666 135.31 167.732 133.853C165.905 132.476 164.879 130.382 164.879 127.2H160.879C160.879 131.351 162.286 134.757 165.325 137.047C168.258 139.257 172.418 140.2 177.479 140.2V136.2ZM164.879 127.2C164.879 125.766 165.276 123.592 166.192 120.582L162.366 119.418C161.415 122.542 160.879 125.168 160.879 127.2H164.879ZM166.192 120.582C167.161 117.398 167.679 114.527 167.679 112H163.679C163.679 114.006 163.263 116.468 162.366 119.418L166.192 120.582ZM167.679 112C167.679 109.31 166.875 106.912 165.215 104.92L162.142 107.48C163.149 108.688 163.679 110.157 163.679 112H167.679ZM165.264 104.981C163.489 102.673 160.922 101.6 157.879 101.6V105.6C159.903 105.6 161.202 106.26 162.094 107.419L165.264 104.981ZM157.879 101.6C154.791 101.6 152.089 102.762 149.865 104.986L152.693 107.814C154.202 106.305 155.9 105.6 157.879 105.6V101.6ZM149.865 104.986C147.935 106.915 146.624 109.044 146.123 111.381L150.035 112.219C150.334 110.823 151.156 109.352 152.693 107.814L149.865 104.986ZM146.156 111.251L145.356 114.051L149.202 115.149L150.002 112.349L146.156 111.251ZM145.315 114.22C144.476 118.559 144.079 125.661 144.079 135.4H148.079C148.079 125.672 148.482 118.908 149.242 114.98L145.315 114.22ZM144.079 135.4C144.079 145.013 144.212 152.649 144.481 158.295L148.477 158.105C148.212 152.551 148.079 144.987 148.079 135.4H144.079ZM144.481 158.297C144.748 163.761 145.017 167.631 145.294 169.848L149.263 169.352C149.007 167.303 148.743 163.572 148.477 158.103L144.481 158.297ZM145.296 169.864C145.429 170.858 145.527 171.642 145.591 172.221C145.623 172.511 145.646 172.741 145.661 172.916C145.668 173.003 145.673 173.072 145.676 173.123C145.679 173.178 145.679 173.2 145.679 173.2H149.679C149.679 172.633 149.519 171.266 149.261 169.336L145.296 169.864ZM145.679 173.2C145.679 175.479 144.354 177.587 140.608 179.4L142.35 183C146.871 180.813 149.679 177.587 149.679 173.2H145.679ZM140.562 179.423C136.676 181.428 132.855 182.4 129.079 182.4V186.4C133.57 186.4 138.015 185.238 142.396 182.977L140.562 179.423ZM129.079 182.4C127.092 182.4 125.863 182.183 125.202 181.906C124.892 181.775 124.821 181.679 124.832 181.693C124.868 181.738 124.879 181.803 124.879 181.8H120.879C120.879 182.664 121.148 183.487 121.701 184.182C122.229 184.846 122.932 185.291 123.655 185.594C125.061 186.184 126.933 186.4 129.079 186.4V182.4ZM124.853 182.118L125.853 175.918L121.904 175.282L120.904 181.482L124.853 182.118ZM125.854 175.918C127.744 164.17 128.679 148.919 128.679 130.2H124.679C124.679 148.814 123.747 163.83 121.904 175.282L125.854 175.918ZM128.679 130.2C128.679 111.554 128.018 98.6965 126.64 91.8078L122.718 92.5922C124.007 99.0368 124.679 111.513 124.679 130.2H128.679ZM126.679 92.2C126.679 92.0996 126.698 92.108 126.669 92.1577C126.64 92.2067 126.626 92.1906 126.721 92.1365C126.971 91.9936 127.604 91.8 128.879 91.8V87.8C127.354 87.8 125.887 88.0064 124.737 88.6635C123.42 89.4161 122.679 90.6754 122.679 92.2H126.679ZM128.879 91.8C135.596 91.8 139.523 94.052 141.48 98.0749L145.077 96.3251C142.234 90.4813 136.562 87.8 128.879 87.8V91.8ZM141.339 97.6851C141.433 98.0639 141.598 98.559 141.929 99C142.302 99.4973 142.96 100 143.879 100V96C144.163 96 144.442 96.0756 144.684 96.2135C144.912 96.344 145.053 96.4992 145.129 96.6C145.26 96.7743 145.258 96.8694 145.219 96.7149L141.339 97.6851ZM143.879 100C144.408 100 144.854 99.822 145.1 99.7113C145.39 99.5806 145.682 99.4115 145.96 99.2324C146.52 98.8723 147.188 98.3676 147.945 97.7479L145.412 94.6521C144.703 95.2324 144.171 95.6277 143.797 95.8676C143.609 95.9885 143.501 96.0443 143.458 96.0637C143.371 96.103 143.55 96 143.879 96V100ZM147.945 97.7479C151.967 94.4573 156.713 92.8 162.279 92.8V88.8C155.845 88.8 150.191 90.7427 145.412 94.6521L147.945 97.7479ZM162.279 92.8C165.744 92.8 169.23 93.4795 172.748 94.8615L174.21 91.1385C170.261 89.5872 166.281 88.8 162.279 88.8V92.8ZM172.731 94.8547C176.168 96.2416 178.656 98.3362 180.309 101.121C181.978 103.931 182.879 107.585 182.879 112.2H186.879C186.879 107.082 185.88 102.669 183.749 99.0789C181.602 95.4638 178.39 92.8251 174.227 91.1453L172.731 94.8547ZM182.883 112.069L181.883 127.269L185.875 127.531L186.875 112.331L182.883 112.069ZM190.973 103L188.978 102.85L188.959 103.106L189.005 103.358L190.973 103ZM191.573 95L189.585 94.7791L189.581 94.8147L189.578 94.8504L191.573 95ZM201.373 93.2V95.2H203.475L203.37 93.1001L201.373 93.2ZM200.573 77.2H198.573V77.25L198.575 77.2999L200.573 77.2ZM207.573 67.6L206.544 65.885L206.544 65.885L207.573 67.6ZM222.173 65.2L224.151 65.4931L224.173 65.3473V65.2H222.173ZM220.573 93L218.574 92.9286L218.5 95H220.573V93ZM233.573 100.8L235.279 101.843L235.292 101.823L235.304 101.802L233.573 100.8ZM228.773 104.6V106.6H228.849L228.926 106.594L228.773 104.6ZM220.373 104.6V102.6H218.431L218.374 104.541L220.373 104.6ZM220.373 154L218.373 154.038L218.373 154.058L218.374 154.077L220.373 154ZM221.173 169.8L219.178 169.948L219.179 169.953L221.173 169.8ZM221.973 178.2L219.988 178.448L219.996 178.509L220.007 178.569L221.973 178.2ZM222.773 182.8L220.793 183.083L220.812 183.218L220.85 183.349L222.773 182.8ZM220.573 186.8V188.8H220.649L220.726 188.794L220.573 186.8ZM204.973 184.6L204.417 186.521L204.43 186.525L204.973 184.6ZM197.373 177L195.388 176.752L195.373 176.875V177H197.373ZM201.573 104.8H203.573V102.8H201.573V104.8ZM193.373 105.2V107.2H193.515L193.655 107.18L193.373 105.2ZM192.967 103.15L193.567 95.1496L189.578 94.8504L188.978 102.85L192.967 103.15ZM193.56 95.2209C193.567 95.1598 193.575 95.178 193.543 95.2321C193.508 95.2909 193.466 95.3246 193.454 95.3324C193.451 95.3343 193.506 95.2988 193.662 95.2637C193.819 95.2284 194.05 95.2 194.373 95.2V91.2C193.321 91.2 192.214 91.3742 191.291 91.9676C190.269 92.6249 189.711 93.6406 189.585 94.7791L193.56 95.2209ZM194.373 95.2H201.373V91.2H194.373V95.2ZM203.37 93.1001L202.57 77.1001L198.575 77.2999L199.375 93.2999L203.37 93.1001ZM202.573 77.2V76.4H198.573V77.2H202.573ZM202.573 76.4C202.573 74.4479 204.07 72.0339 208.602 69.315L206.544 65.885C201.742 68.7661 198.573 72.2187 198.573 76.4H202.573ZM208.602 69.315C213.078 66.6292 216.987 65.4 220.373 65.4V61.4C216.025 61.4 211.401 62.9708 206.544 65.885L208.602 69.315ZM220.373 65.4C220.531 65.4 220.594 65.4183 220.592 65.4176C220.583 65.4149 220.497 65.3869 220.394 65.2948C220.285 65.1983 220.219 65.0866 220.187 65.0022C220.16 64.9297 220.173 64.9159 220.173 65H224.173C224.173 64.0934 223.907 63.0656 223.051 62.3052C222.241 61.5847 221.227 61.4 220.373 61.4V65.4ZM220.173 65V65.2H224.173V65H220.173ZM220.194 64.9069C219.641 68.6427 219.106 78.039 218.574 92.9286L222.571 93.0714C223.106 78.0943 223.638 68.9573 224.151 65.4931L220.194 64.9069ZM220.573 95C226.389 95 230.304 94.8723 232.101 94.5728L231.444 90.6272C230.041 90.861 226.49 91 220.573 91V95ZM232.101 94.5728C232.899 94.4399 233.506 94.3415 233.927 94.2767C234.138 94.2442 234.294 94.2215 234.399 94.2074C234.453 94.2003 234.484 94.1967 234.498 94.1953C234.536 94.1912 234.472 94.2 234.373 94.2V90.2C234.178 90.2 233.951 90.2318 233.871 90.2425C233.726 90.2618 233.54 90.2891 233.319 90.3232C232.873 90.3918 232.246 90.4934 231.444 90.6272L232.101 94.5728ZM234.373 94.2C234.313 94.2 234.165 94.1847 233.993 94.0865C233.82 93.9878 233.729 93.8652 233.695 93.8077C233.669 93.7629 233.694 93.7858 233.722 93.9317C233.75 94.0743 233.773 94.2913 233.773 94.6H237.773C237.773 93.671 237.649 92.6469 237.15 91.7923C236.555 90.7719 235.544 90.2 234.373 90.2V94.2ZM233.773 94.6C233.773 95.6631 233.257 97.3541 231.842 99.7979L235.304 101.802C236.822 99.1792 237.773 96.7369 237.773 94.6H233.773ZM231.866 99.7571C230.525 101.951 229.396 102.546 228.619 102.606L228.926 106.594C231.616 106.387 233.687 104.449 235.279 101.843L231.866 99.7571ZM228.773 102.6H220.373V106.6H228.773V102.6ZM218.374 104.541C218.239 109.107 218.173 116.8 218.173 127.6H222.173C222.173 116.8 222.239 109.16 222.372 104.659L218.374 104.541ZM218.173 127.6C218.173 138.273 218.239 147.087 218.373 154.038L222.372 153.962C222.239 147.046 222.173 138.26 222.173 127.6H218.173ZM218.374 154.077C218.641 161.017 218.909 166.312 219.178 169.948L223.167 169.652C222.903 166.088 222.638 160.85 222.371 153.923L218.374 154.077ZM219.179 169.953C219.446 173.435 219.716 176.27 219.988 178.448L223.957 177.952C223.696 175.863 223.432 173.098 223.167 169.647L219.179 169.953ZM220.007 178.569C220.407 180.7 220.666 182.196 220.793 183.083L224.753 182.517C224.613 181.537 224.339 179.966 223.938 177.831L220.007 178.569ZM220.85 183.349C220.977 183.797 221.066 184.138 221.12 184.384C221.148 184.506 221.163 184.59 221.171 184.642C221.181 184.705 221.173 184.679 221.173 184.6H225.173C225.173 184.227 225.093 183.823 225.025 183.516C224.946 183.162 224.835 182.736 224.696 182.251L220.85 183.349ZM221.173 184.6C221.173 184.717 221.154 184.743 221.166 184.714C221.181 184.677 221.21 184.641 221.231 184.623C221.244 184.612 221.21 184.646 221.078 184.69C220.943 184.735 220.731 184.782 220.419 184.806L220.726 188.794C221.803 188.711 222.931 188.425 223.815 187.677C224.777 186.862 225.173 185.741 225.173 184.6H221.173ZM220.573 184.8C215.563 184.8 210.546 184.094 205.516 182.675L204.43 186.525C209.799 188.039 215.182 188.8 220.573 188.8V184.8ZM205.529 182.679C203.177 181.998 201.628 181.127 200.687 180.186C199.797 179.296 199.373 178.272 199.373 177H195.373C195.373 179.328 196.215 181.37 197.858 183.014C199.45 184.606 201.701 185.735 204.417 186.521L205.529 182.679ZM199.357 177.248C202.169 154.755 203.573 130.605 203.573 104.8H199.573C199.573 130.462 198.177 154.445 195.388 176.752L199.357 177.248ZM201.573 102.8C197.947 102.8 195.1 102.933 193.09 103.22L193.655 107.18C195.379 106.934 197.999 106.8 201.573 106.8V102.8ZM193.373 103.2H193.173V107.2H193.373V103.2ZM193.173 103.2C193.077 103.2 193.051 103.186 193.069 103.193C193.093 103.202 193.121 103.22 193.137 103.236C193.159 103.257 193.031 103.143 192.94 102.642L189.005 103.358C189.181 104.324 189.553 105.309 190.308 106.064C191.109 106.865 192.132 107.2 193.173 107.2V103.2ZM344.037 122.2H342.037V122.221L342.037 122.242L344.037 122.2ZM338.437 117.2L338.579 115.205L338.508 115.2H338.437V117.2ZM322.637 116.2L320.678 115.795L320.637 115.995V116.2H322.637ZM326.837 107L328.336 108.323L328.355 108.302L328.373 108.28L326.837 107ZM331.837 103L331.554 101.02L331.499 101.028L331.444 101.039L331.837 103ZM366.237 102.4L366.112 104.396L366.174 104.4H366.237V102.4ZM370.237 103L371.798 101.751L371.64 101.552L371.437 101.4L370.237 103ZM370.237 122L368.239 121.896L368.239 121.909L368.238 121.921L370.237 122ZM370.437 164.6L368.496 165.085L368.5 165.1L368.504 165.115L370.437 164.6ZM365.637 175.4L366.718 177.082L366.739 177.069L366.76 177.055L365.637 175.4ZM348.637 181.8L348.16 179.858L348.152 179.86L348.637 181.8ZM292.237 172L290.851 173.442L290.859 173.449L290.867 173.457L292.237 172ZM277.837 150.2L275.933 150.813L275.938 150.828L275.943 150.842L277.837 150.2ZM349.837 39.8L349.294 41.7249L349.317 41.7314L349.34 41.7373L349.837 39.8ZM363.437 48L361.976 49.3663L361.999 49.3906L362.023 49.4142L363.437 48ZM367.437 73.8L365.57 73.082L365.556 73.1192L365.543 73.1568L367.437 73.8ZM341.037 81L339.583 82.3732L339.622 82.4148L339.663 82.454L341.037 81ZM340.237 68.2L340.686 70.1488L340.979 70.0813L341.239 69.9308L340.237 68.2ZM340.037 52.6L338.837 54.2L338.863 54.2197L338.89 54.2385L340.037 52.6ZM315.437 56.6L316.872 57.9929L316.882 57.9826L316.892 57.972L315.437 56.6ZM305.837 74.6L303.905 74.0825L303.9 74.0987L303.896 74.1149L305.837 74.6ZM317.437 160.6L318.594 158.969L318.575 158.955L318.555 158.942L317.437 160.6ZM343.837 160.4L345.807 160.743L345.82 160.668L345.827 160.593L343.837 160.4ZM344.437 141.2H346.437V141.179L346.436 141.158L344.437 141.2ZM346.037 122.2C346.037 120.236 345.421 118.455 343.969 117.158C342.577 115.916 340.678 115.355 338.579 115.205L338.294 119.195C339.928 119.312 340.829 119.717 341.305 120.142C341.719 120.512 342.037 121.097 342.037 122.2H346.037ZM338.437 115.2H324.237V119.2H338.437V115.2ZM324.237 115.2C324.068 115.2 323.977 115.186 323.945 115.18C323.91 115.172 323.98 115.181 324.097 115.254C324.227 115.335 324.386 115.479 324.501 115.696C324.614 115.908 324.637 116.096 324.637 116.2H320.637C320.637 117.173 321.084 118.088 321.977 118.646C322.713 119.106 323.56 119.2 324.237 119.2V115.2ZM324.595 116.605C325.346 112.978 326.627 110.261 328.336 108.323L325.337 105.677C323.047 108.272 321.528 111.689 320.678 115.795L324.595 116.605ZM328.373 108.28C329.323 107.141 330.144 106.316 330.836 105.762C331.548 105.192 332.005 105.006 332.229 104.961L331.444 101.039C330.335 101.261 329.292 101.874 328.337 102.638C327.363 103.418 326.351 104.459 325.3 105.72L328.373 108.28ZM332.12 104.98C335.701 104.468 341.71 104.2 350.237 104.2V100.2C341.696 100.2 335.44 100.465 331.554 101.02L332.12 104.98ZM350.237 104.2C358.793 104.2 364.055 104.268 366.112 104.396L366.361 100.404C364.152 100.266 358.747 100.2 350.237 100.2V104.2ZM366.237 104.4C367.254 104.4 368.011 104.449 368.54 104.528C369.149 104.619 369.191 104.716 369.037 104.6L371.437 101.4C370.749 100.884 369.857 100.681 369.133 100.572C368.329 100.451 367.353 100.4 366.237 100.4V104.4ZM368.675 104.249C368.898 104.528 369.037 104.876 369.037 105.4H373.037C373.037 104.058 372.642 102.806 371.798 101.751L368.675 104.249ZM369.037 105.4C369.037 106.132 368.775 111.58 368.239 121.896L372.234 122.104C372.765 111.887 373.037 106.268 373.037 105.4H369.037ZM368.238 121.921C367.837 132.075 367.637 141.235 367.637 149.4H371.637C371.637 141.298 371.836 132.192 372.235 122.079L368.238 121.921ZM367.637 149.4C367.637 153.418 367.704 156.723 367.839 159.305C367.973 161.845 368.179 163.814 368.496 165.085L372.377 164.115C372.161 163.252 371.967 161.622 371.834 159.095C371.703 156.61 371.637 153.382 371.637 149.4H367.637ZM368.504 165.115C368.766 166.099 368.957 166.877 369.08 167.462C369.141 167.754 369.183 167.983 369.208 168.156C369.236 168.341 369.237 168.409 369.237 168.4H373.237C373.237 167.903 373.127 167.27 372.994 166.638C372.85 165.956 372.64 165.101 372.369 164.085L368.504 165.115ZM369.237 168.4C369.237 168.861 369.036 169.549 368.275 170.501C367.513 171.453 366.29 172.54 364.514 173.745L366.76 177.055C368.717 175.727 370.294 174.38 371.398 172.999C372.504 171.618 373.237 170.072 373.237 168.4H369.237ZM364.555 173.718C361.098 175.94 355.683 178.01 348.16 179.858L349.114 183.742C356.791 181.857 362.709 179.66 366.718 177.082L364.555 173.718ZM348.152 179.86C340.869 181.68 332.768 182.6 323.837 182.6V186.6C333.039 186.6 341.471 185.653 349.122 183.74L348.152 179.86ZM323.837 182.6C312.219 182.6 302.174 178.598 293.607 170.543L290.867 173.457C300.167 182.202 311.188 186.6 323.837 186.6V182.6ZM293.623 170.558C286.884 164.078 282.28 157.077 279.731 149.558L275.943 150.842C278.727 159.057 283.723 166.588 290.851 173.442L293.623 170.558ZM279.74 149.587C277.301 142.011 276.037 131.186 276.037 117H272.037C272.037 131.347 273.306 142.655 275.933 150.813L279.74 149.587ZM276.037 117C276.037 90.7186 280.863 71.3698 290.2 58.6324C299.451 46.0108 313.342 39.6 332.237 39.6V35.6C312.331 35.6 297.122 42.4225 286.974 56.2676C276.91 69.9969 272.037 90.348 272.037 117H276.037ZM332.237 39.6C338.623 39.6 344.303 40.3172 349.294 41.7249L350.38 37.8751C344.971 36.3495 338.917 35.6 332.237 35.6V39.6ZM349.34 41.7373C354.15 42.9708 358.355 45.4954 361.976 49.3663L364.897 46.6337C360.785 42.2379 355.923 39.2959 350.333 37.8627L349.34 41.7373ZM362.023 49.4142C365.597 52.9886 367.437 57.6545 367.437 63.6H371.437C371.437 56.7455 369.276 51.0113 364.851 46.5858L362.023 49.4142ZM367.437 63.6C367.437 66.6614 366.825 69.8184 365.57 73.082L369.303 74.518C370.715 70.8483 371.437 67.2053 371.437 63.6H367.437ZM365.543 73.1568C364.461 76.3436 362.77 78.5999 360.532 80.0827C358.276 81.5771 355.291 82.4 351.437 82.4V86.4C355.849 86.4 359.664 85.4562 362.741 83.4173C365.836 81.3668 368.013 78.3231 369.33 74.4432L365.543 73.1568ZM351.437 82.4C347.221 82.4 344.319 81.3487 342.41 79.546L339.663 82.454C342.555 85.1846 346.586 86.4 351.437 86.4V82.4ZM342.491 79.6268C340.657 77.6856 339.637 74.9574 339.637 71.2H335.637C335.637 75.7093 336.883 79.5144 339.583 82.3732L342.491 79.6268ZM339.637 71.2C339.637 70.776 339.743 70.6239 339.798 70.5599C339.873 70.4737 340.092 70.2859 340.686 70.1488L339.787 66.2512C338.648 66.5141 337.567 67.0263 336.775 67.9401C335.964 68.8761 335.637 70.024 335.637 71.2H339.637ZM341.239 69.9308C344.514 68.0348 346.037 64.8245 346.037 60.8H342.037C342.037 63.7088 341.026 65.4318 339.235 66.4691L341.239 69.9308ZM346.037 60.8C346.037 56.6281 344.448 53.2465 341.184 50.9615L338.89 54.2385C340.959 55.6869 342.037 57.7719 342.037 60.8H346.037ZM341.237 51C338.273 48.7774 335.061 47.6 331.637 47.6V51.6C334.079 51.6 336.467 52.4226 338.837 54.2L341.237 51ZM331.637 47.6C324.685 47.6 318.758 50.1615 313.982 55.228L316.892 57.972C320.915 53.7052 325.789 51.6 331.637 51.6V47.6ZM314.002 55.207C309.316 60.0342 305.973 66.3595 303.905 74.0825L307.769 75.1175C309.7 67.9072 312.757 62.2325 316.872 57.9929L314.002 55.207ZM303.896 74.1149C300.523 87.6083 298.837 101.371 298.837 115.4H302.837C302.837 101.695 304.484 88.2583 307.777 75.0851L303.896 74.1149ZM298.837 115.4C298.837 138.267 304.403 154.219 316.318 162.258L318.555 158.942C308.337 152.048 302.837 137.866 302.837 115.4H298.837ZM316.279 162.231C320.709 165.375 325.44 167 330.437 167V163C326.366 163 322.431 161.692 318.594 158.969L316.279 162.231ZM330.437 167C334.714 167 338.191 166.615 340.736 165.742C343.27 164.872 345.358 163.325 345.807 160.743L341.866 160.057C341.782 160.542 341.37 161.295 339.437 161.958C337.516 162.618 334.56 163 330.437 163V167ZM345.827 160.593C346.237 156.358 346.437 149.878 346.437 141.2H342.437C342.437 149.856 342.236 156.175 341.846 160.207L345.827 160.593ZM346.436 141.158L346.036 122.158L342.037 122.242L342.437 141.242L346.436 141.158ZM448.859 121L450.858 121.031L450.859 121.016V121H448.859ZM448.459 146.6L446.459 146.569L446.459 146.584V146.6H448.459ZM454.259 178.6L455.673 177.186L455.648 177.161L455.621 177.136L454.259 178.6ZM428.459 175.8L430.448 175.591L430.446 175.579L428.459 175.8ZM428.259 168.4L426.259 168.35L426.259 168.375V168.4H428.259ZM429.059 136.4L431.058 136.45L431.059 136.425V136.4H429.059ZM409.459 140.4L410.54 142.082L410.54 142.082L409.459 140.4ZM403.459 161.6L405.02 160.351L405.02 160.351L403.459 161.6ZM415.059 163.2L414.051 161.472L414.017 161.492L413.985 161.513L415.059 163.2ZM417.859 161.6L418.092 159.614L417.499 159.544L416.964 159.811L417.859 161.6ZM415.059 179.6L416.143 181.281L416.162 181.268L416.18 181.256L415.059 179.6ZM390.259 181.2L389.364 182.989L389.379 182.996L389.393 183.003L390.259 181.2ZM383.259 175.8L384.871 174.617L384.871 174.617L383.259 175.8ZM379.659 169L377.745 169.582L377.762 169.637L377.782 169.691L379.659 169ZM387.059 138.6L385.678 137.153L385.678 137.153L387.059 138.6ZM409.659 126.6L409.271 124.638L409.212 124.65L409.154 124.665L409.659 126.6ZM428.659 120L426.729 119.474L426.726 119.485L428.659 120ZM410.259 105L411.486 106.579L411.513 106.558L411.539 106.536L410.259 105ZM406.659 112.2H404.659V112.446L404.718 112.685L406.659 112.2ZM407.859 117L409.845 117.234L409.888 116.87L409.799 116.515L407.859 117ZM400.659 121L400.483 119.008L400.478 119.008L400.659 121ZM398.459 121.2V123.2H398.549L398.64 123.192L398.459 121.2ZM388.859 118.2L387.535 119.7L387.557 119.718L387.578 119.736L388.859 118.2ZM387.459 103.2L385.706 102.236L385.697 102.252L385.689 102.269L387.459 103.2ZM392.859 96.8L391.659 95.2L391.659 95.2L392.859 96.8ZM402.659 92.6L403.185 94.5295L403.204 94.5243L403.223 94.5187L402.659 92.6ZM425.259 91L425.025 92.9863L425.025 92.9863L425.259 91ZM434.459 93L433.927 94.928L433.965 94.9386L434.004 94.9477L434.459 93ZM444.259 98.6L442.776 99.9418L442.793 99.9608L442.81 99.9793L444.259 98.6ZM448.459 107.6L446.46 107.683L446.462 107.728L446.466 107.773L448.459 107.6ZM446.859 120.969L446.459 146.569L450.458 146.631L450.858 121.031L446.859 120.969ZM446.459 146.6C446.459 155.521 446.944 162.755 447.941 168.257C448.917 173.646 450.453 177.789 452.896 180.064L455.621 177.136C454.198 175.811 452.833 172.821 451.877 167.543C450.94 162.378 450.459 155.412 450.459 146.6H446.459ZM452.844 180.014C453.056 180.226 453.059 180.335 453.059 180.4H457.059C457.059 179.132 456.528 178.041 455.673 177.186L452.844 180.014ZM453.059 180.4C453.059 180.043 453.299 179.936 453.108 180.068C452.87 180.233 452.342 180.474 451.359 180.701C449.42 181.149 446.355 181.4 442.059 181.4V185.4C446.429 185.4 449.864 185.151 452.258 184.599C453.442 184.326 454.539 183.942 455.385 183.357C456.276 182.739 457.059 181.757 457.059 180.4H453.059ZM442.059 181.4C437.938 181.4 435.069 180.779 433.234 179.754C431.522 178.797 430.645 177.463 430.448 175.591L426.47 176.009C426.806 179.204 428.462 181.669 431.283 183.246C433.981 184.754 437.646 185.4 442.059 185.4V181.4ZM430.446 175.579C430.327 174.508 430.259 172.154 430.259 168.4H426.259C426.259 172.112 426.323 174.692 426.471 176.021L430.446 175.579ZM430.258 168.45L431.058 136.45L427.059 136.35L426.259 168.35L430.258 168.45ZM431.059 136.4C431.059 135.55 430.804 134.569 429.976 133.845C429.199 133.165 428.239 133 427.459 133V137C427.744 137 427.585 137.068 427.342 136.855C427.215 136.744 427.133 136.612 427.09 136.499C427.051 136.399 427.059 136.352 427.059 136.4H431.059ZM427.459 133C420.659 133 414.286 134.919 408.377 138.718L410.54 142.082C415.831 138.681 421.458 137 427.459 137V133ZM408.377 138.718C402.33 142.605 399.059 147.783 399.059 154.2H403.059C403.059 149.417 405.387 145.395 410.54 142.082L408.377 138.718ZM399.059 154.2C399.059 157.518 399.973 160.444 401.897 162.849L405.02 160.351C403.745 158.756 403.059 156.749 403.059 154.2H399.059ZM401.897 162.849C403.821 165.254 406.3 166.6 409.259 166.6V162.6C407.684 162.6 406.297 161.946 405.02 160.351L401.897 162.849ZM409.259 166.6C411.899 166.6 414.245 166.089 416.132 164.887L413.985 161.513C412.939 162.178 411.418 162.6 409.259 162.6V166.6ZM416.066 164.928C417.702 163.973 418.56 163.485 418.753 163.389L416.964 159.811C416.624 159.981 415.615 160.56 414.051 161.472L416.066 164.928ZM417.625 163.586C417.952 163.625 418.272 163.758 418.6 164.454C418.981 165.261 419.259 166.648 419.259 168.8H423.259C423.259 166.419 422.969 164.339 422.217 162.746C421.412 161.042 420.032 159.842 418.092 159.614L417.625 163.586ZM419.259 168.8C419.259 172.439 417.607 175.458 413.937 177.944L416.18 181.256C420.777 178.142 423.259 173.961 423.259 168.8H419.259ZM413.974 177.919C410.136 180.396 406.175 181.6 402.059 181.6V185.6C407.009 185.6 411.715 184.137 416.143 181.281L413.974 177.919ZM402.059 181.6C397.758 181.6 394.133 180.841 391.124 179.397L389.393 183.003C393.051 184.759 397.292 185.6 402.059 185.6V181.6ZM391.153 179.411C388.12 177.895 386.086 176.273 384.871 174.617L381.646 176.983C383.365 179.327 385.997 181.305 389.364 182.989L391.153 179.411ZM384.871 174.617C383.525 172.781 382.41 170.682 381.535 168.309L377.782 169.691C378.774 172.385 380.059 174.819 381.646 176.983L384.871 174.617ZM381.572 168.418C380.674 165.468 380.259 163.006 380.259 161H376.259C376.259 163.527 376.776 166.398 377.745 169.582L381.572 168.418ZM380.259 161C380.259 152.123 383.029 145.211 388.44 140.047L385.678 137.153C379.355 143.189 376.259 151.21 376.259 161H380.259ZM388.44 140.047C394.021 134.719 401.235 130.864 410.163 128.535L409.154 124.665C399.682 127.136 391.829 131.281 385.678 137.153L388.44 140.047ZM410.047 128.562C416.142 127.356 420.866 126.185 424.165 125.039C425.807 124.469 427.18 123.876 428.215 123.244C429.15 122.672 430.246 121.809 430.591 120.515L426.726 119.485C426.804 119.191 426.909 119.353 426.128 119.831C425.445 120.249 424.377 120.731 422.852 121.261C419.818 122.315 415.308 123.444 409.271 124.638L410.047 128.562ZM430.588 120.526C431.065 118.779 431.259 116.077 431.259 112.6H427.259C427.259 116.057 427.053 118.288 426.729 119.474L430.588 120.526ZM431.259 112.6C431.259 108.749 430.275 105.495 427.96 103.223C425.651 100.957 422.358 100 418.459 100V104C421.76 104 423.866 104.81 425.158 106.077C426.442 107.338 427.259 109.385 427.259 112.6H431.259ZM418.459 100C414.915 100 411.73 101.17 408.978 103.464L411.539 106.536C413.587 104.83 415.869 104 418.459 104V100ZM409.031 103.421C406.164 105.651 404.659 108.624 404.659 112.2H408.659C408.659 109.91 409.553 108.083 411.486 106.579L409.031 103.421ZM404.718 112.685L405.918 117.485L409.799 116.515L408.599 111.715L404.718 112.685ZM405.872 116.766C405.83 117.127 405.654 117.526 404.887 117.952C404.042 118.421 402.63 118.818 400.483 119.008L400.834 122.992C403.22 122.782 405.275 122.312 406.83 121.448C408.463 120.541 409.621 119.139 409.845 117.234L405.872 116.766ZM400.478 119.008L398.278 119.208L398.64 123.192L400.84 122.992L400.478 119.008ZM398.459 119.2C394.793 119.2 392.089 118.288 390.139 116.664L387.578 119.736C390.429 122.112 394.125 123.2 398.459 123.2V119.2ZM390.182 116.7C388.393 115.122 387.459 113.026 387.459 110.2H383.459C383.459 114.041 384.791 117.278 387.535 119.7L390.182 116.7ZM387.459 110.2C387.459 108.483 387.997 106.472 389.228 104.131L385.689 102.269C384.254 104.995 383.459 107.65 383.459 110.2H387.459ZM389.211 104.164C390.56 101.711 392.182 99.8071 394.059 98.4L391.659 95.2C389.268 96.9929 387.29 99.3557 385.706 102.236L389.211 104.164ZM394.059 98.4C395.896 97.0221 398.88 95.7035 403.185 94.5295L402.132 90.6705C397.637 91.8965 394.088 93.3779 391.659 95.2L394.059 98.4ZM403.223 94.5187C407.599 93.2317 411.741 92.6 415.659 92.6V88.6C411.309 88.6 406.785 89.3016 402.094 90.6813L403.223 94.5187ZM415.659 92.6C419.766 92.6 422.874 92.7333 425.025 92.9863L425.492 89.0137C423.11 88.7334 419.818 88.6 415.659 88.6V92.6ZM425.025 92.9863C427.143 93.2355 430.096 93.8714 433.927 94.928L434.99 91.072C431.087 89.9953 427.908 89.2979 425.492 89.0137L425.025 92.9863ZM434.004 94.9477C437.644 95.797 440.54 97.4704 442.776 99.9418L445.742 97.2582C442.911 94.1295 439.273 92.0697 434.913 91.0523L434.004 94.9477ZM442.81 99.9793C445.215 102.504 446.351 105.063 446.46 107.683L450.457 107.517C450.299 103.737 448.635 100.296 445.707 97.2207L442.81 99.9793ZM446.466 107.773C446.725 110.752 446.859 115.149 446.859 121H450.859C450.859 115.117 450.725 110.581 450.451 107.427L446.466 107.773ZM486.012 66.6L488.011 66.6327L488.012 66.6163V66.6H486.012ZM484.812 140L482.812 139.967L482.812 139.984V140H484.812ZM487.012 181.2L485.109 181.816L485.155 181.959L485.223 182.094L487.012 181.2ZM468.812 183L469.581 181.154L469.568 181.148L469.555 181.143L468.812 183ZM461.812 175.6L459.832 175.317L459.812 175.458V175.6H461.812ZM465.812 100.8H467.812V100.774L467.811 100.748L465.812 100.8ZM465.012 70.2L467.011 70.1477L467.01 70.1026L467.007 70.0575L465.012 70.2ZM462.612 60.6L460.788 61.4207L460.805 61.4579L460.823 61.4944L462.612 60.6ZM459.012 55.4L460.121 53.7359L460.097 53.7196L460.072 53.704L459.012 55.4ZM457.412 54.4L458.472 52.704L458.438 52.6831L458.404 52.6635L457.412 54.4ZM464.612 45.8L465.455 47.6134L465.464 47.6092L465.473 47.605L464.612 45.8ZM485.212 43.8L487.188 43.4959L487.184 43.469L487.179 43.4422L485.212 43.8ZM484.012 66.5673L482.812 139.967L486.811 140.033L488.011 66.6327L484.012 66.5673ZM482.812 140C482.812 151.482 482.995 160.689 483.365 167.607C483.729 174.435 484.283 179.262 485.109 181.816L488.915 180.584C488.274 178.605 487.728 174.298 487.359 167.393C486.995 160.578 486.812 151.451 486.812 140H482.812ZM485.223 182.094C485.501 182.65 485.612 183.146 485.612 183.6H489.612C489.612 182.454 489.323 181.35 488.801 180.306L485.223 182.094ZM485.612 183.6C485.612 183.562 485.635 183.465 485.692 183.395C485.722 183.357 485.677 183.436 485.397 183.552C484.799 183.799 483.667 184 481.812 184V188C483.823 188 485.591 187.801 486.926 187.248C487.614 186.964 488.293 186.543 488.807 185.905C489.346 185.235 489.612 184.438 489.612 183.6H485.612ZM481.812 184C478.283 184 474.216 183.085 469.581 181.154L468.042 184.846C473.007 186.915 477.607 188 481.812 188V184ZM469.555 181.143C465.105 179.363 463.812 177.391 463.812 175.6H459.812C459.812 179.943 463.185 182.903 468.069 184.857L469.555 181.143ZM463.792 175.883C466.477 157.082 467.812 132.042 467.812 100.8H463.812C463.812 131.958 462.479 156.785 459.832 175.317L463.792 175.883ZM467.811 100.748L467.011 70.1477L463.012 70.2523L463.812 100.852L467.811 100.748ZM467.007 70.0575C466.726 66.1269 465.877 62.6585 464.401 59.7056L460.823 61.4944C462.013 63.8748 462.764 66.8064 463.017 70.3425L467.007 70.0575ZM464.436 59.7793C463.211 57.0573 461.82 54.8685 460.121 53.7359L457.902 57.0641C458.603 57.5315 459.613 58.8093 460.788 61.4207L464.436 59.7793ZM460.072 53.704L458.472 52.704L456.352 56.096L457.952 57.096L460.072 53.704ZM458.404 52.6635C458.247 52.5737 458.135 52.4955 458.058 52.433C457.98 52.3705 457.948 52.3316 457.94 52.3221C457.934 52.3143 457.955 52.3387 457.976 52.3961C457.998 52.4563 458.012 52.5277 458.012 52.6H454.012C454.012 54.3515 455.266 55.4773 456.419 56.1365L458.404 52.6635ZM458.012 52.6C458.012 52.6633 458.031 52.1533 459.402 51.0688C460.656 50.0775 462.643 48.9213 465.455 47.6134L463.768 43.9865C460.847 45.3454 458.534 46.6558 456.921 47.9312C455.426 49.1134 454.012 50.6701 454.012 52.6H458.012ZM465.473 47.605C471.121 44.9093 476.494 43.6 481.612 43.6V39.6C475.796 39.6 469.836 41.0907 463.75 43.995L465.473 47.605ZM481.612 43.6C482.487 43.6 482.905 43.7566 483.069 43.8566C483.137 43.8982 483.161 43.929 483.173 43.9469C483.186 43.9674 483.22 44.0255 483.244 44.1578L487.179 43.4422C486.951 42.1861 486.273 41.1269 485.155 40.4434C484.118 39.8101 482.87 39.6 481.612 39.6V43.6ZM483.235 44.1041C483.741 47.3905 484.012 54.8284 484.012 66.6H488.012C488.012 54.9049 487.75 47.1428 487.188 43.4959L483.235 44.1041ZM526.637 66.6L528.636 66.6327L528.637 66.6163V66.6H526.637ZM525.437 140L523.437 139.967L523.437 139.984V140H525.437ZM527.637 181.2L525.734 181.816L525.78 181.959L525.848 182.094L527.637 181.2ZM509.437 183L510.206 181.154L510.193 181.148L510.18 181.143L509.437 183ZM502.437 175.6L500.457 175.317L500.437 175.458V175.6H502.437ZM506.437 100.8H508.437V100.774L508.436 100.748L506.437 100.8ZM505.637 70.2L507.636 70.1477L507.635 70.1026L507.632 70.0575L505.637 70.2ZM503.237 60.6L501.413 61.4207L501.43 61.4579L501.448 61.4944L503.237 60.6ZM499.637 55.4L500.746 53.7359L500.722 53.7196L500.697 53.704L499.637 55.4ZM498.037 54.4L499.097 52.704L499.063 52.6831L499.029 52.6635L498.037 54.4ZM505.237 45.8L506.08 47.6134L506.089 47.6092L506.098 47.605L505.237 45.8ZM525.837 43.8L527.813 43.4959L527.809 43.469L527.804 43.4422L525.837 43.8ZM524.637 66.5673L523.437 139.967L527.436 140.033L528.636 66.6327L524.637 66.5673ZM523.437 140C523.437 151.482 523.62 160.689 523.99 167.607C524.354 174.435 524.908 179.262 525.734 181.816L529.54 180.584C528.899 178.605 528.353 174.298 527.984 167.393C527.62 160.578 527.437 151.451 527.437 140H523.437ZM525.848 182.094C526.126 182.65 526.237 183.146 526.237 183.6H530.237C530.237 182.454 529.948 181.35 529.426 180.306L525.848 182.094ZM526.237 183.6C526.237 183.562 526.26 183.465 526.317 183.395C526.347 183.357 526.302 183.436 526.022 183.552C525.424 183.799 524.292 184 522.437 184V188C524.448 188 526.216 187.801 527.551 187.248C528.239 186.964 528.918 186.543 529.432 185.905C529.971 185.235 530.237 184.438 530.237 183.6H526.237ZM522.437 184C518.908 184 514.841 183.085 510.206 181.154L508.667 184.846C513.632 186.915 518.232 188 522.437 188V184ZM510.18 181.143C505.73 179.363 504.437 177.391 504.437 175.6H500.437C500.437 179.943 503.81 182.903 508.694 184.857L510.18 181.143ZM504.417 175.883C507.102 157.082 508.437 132.042 508.437 100.8H504.437C504.437 131.958 503.104 156.785 500.457 175.317L504.417 175.883ZM508.436 100.748L507.636 70.1477L503.637 70.2523L504.437 100.852L508.436 100.748ZM507.632 70.0575C507.351 66.1269 506.502 62.6585 505.026 59.7056L501.448 61.4944C502.638 63.8748 503.389 66.8064 503.642 70.3425L507.632 70.0575ZM505.061 59.7793C503.836 57.0573 502.445 54.8685 500.746 53.7359L498.527 57.0641C499.228 57.5315 500.238 58.8093 501.413 61.4207L505.061 59.7793ZM500.697 53.704L499.097 52.704L496.977 56.096L498.577 57.096L500.697 53.704ZM499.029 52.6635C498.872 52.5737 498.76 52.4955 498.683 52.433C498.605 52.3705 498.573 52.3316 498.565 52.3221C498.559 52.3143 498.58 52.3387 498.601 52.3961C498.623 52.4563 498.637 52.5277 498.637 52.6H494.637C494.637 54.3515 495.891 55.4773 497.044 56.1365L499.029 52.6635ZM498.637 52.6C498.637 52.6633 498.656 52.1533 500.027 51.0688C501.281 50.0775 503.268 48.9213 506.08 47.6134L504.393 43.9865C501.472 45.3454 499.159 46.6558 497.546 47.9312C496.051 49.1134 494.637 50.6701 494.637 52.6H498.637ZM506.098 47.605C511.746 44.9093 517.119 43.6 522.237 43.6V39.6C516.421 39.6 510.461 41.0907 504.375 43.995L506.098 47.605ZM522.237 43.6C523.112 43.6 523.53 43.7566 523.694 43.8566C523.762 43.8982 523.786 43.929 523.798 43.9469C523.811 43.9674 523.845 44.0255 523.869 44.1578L527.804 43.4422C527.576 42.1861 526.898 41.1269 525.78 40.4434C524.743 39.8101 523.495 39.6 522.237 39.6V43.6ZM523.86 44.1041C524.366 47.3905 524.637 54.8284 524.637 66.6H528.637C528.637 54.9049 528.375 47.1428 527.813 43.4959L523.86 44.1041ZM559.262 130.2H557.262V130.24L557.263 130.28L559.262 130.2ZM559.462 135.2H561.462V135.16L561.46 135.12L559.462 135.2ZM561.062 136.4V138.4H561.155L561.248 138.391L561.062 136.4ZM572.262 133.2L573.214 134.959L573.242 134.944L573.269 134.928L572.262 133.2ZM579.462 127L581.096 128.153L581.118 128.121L581.14 128.088L579.462 127ZM584.662 114.2L582.669 114.034L582.668 114.043L582.667 114.052L584.662 114.2ZM584.862 111.8L586.855 111.966L586.862 111.883V111.8H584.862ZM565.862 106.6L567.462 107.8L567.476 107.781L567.489 107.762L565.862 106.6ZM599.662 170.2L597.911 169.234L597.905 169.245L597.899 169.256L599.662 170.2ZM592.662 178.6L593.791 180.251L593.8 180.245L593.809 180.238L592.662 178.6ZM583.662 182.8L584.242 184.714L584.25 184.712L583.662 182.8ZM546.262 172.2L547.95 171.128L547.95 171.128L546.262 172.2ZM548.062 105.4L546.391 104.301L546.386 104.308L546.381 104.316L548.062 105.4ZM602.262 102.8L600.479 103.706L600.491 103.729L600.503 103.753L602.262 102.8ZM604.462 118.8L606.435 119.129L606.437 119.116L606.438 119.104L604.462 118.8ZM595.262 135.2L593.848 133.786L593.848 133.786L595.262 135.2ZM582.662 142.8L581.889 140.955L581.889 140.955L582.662 142.8ZM562.462 147.6V149.6H562.565L562.668 149.589L562.462 147.6ZM562.062 154.4L560.164 155.032L560.186 155.098L560.212 155.161L562.062 154.4ZM565.062 160.2L563.398 161.309L563.441 161.374L563.489 161.436L565.062 160.2ZM592.662 160.2L594.026 161.662L594.03 161.659L592.662 160.2ZM597.862 152.8L596.073 151.906L596.056 151.939L596.041 151.972L597.862 152.8ZM602.062 153.4L603.941 152.717L603.941 152.717L602.062 153.4ZM557.263 130.28L557.463 135.28L561.46 135.12L561.26 130.12L557.263 130.28ZM557.462 135.2C557.462 136.088 557.788 137.045 558.662 137.7C559.427 138.274 560.336 138.4 561.062 138.4V134.4C560.99 134.4 560.937 134.397 560.9 134.393C560.863 134.389 560.846 134.385 560.847 134.385C560.848 134.385 560.87 134.39 560.907 134.407C560.946 134.425 561 134.454 561.062 134.5C561.197 134.601 561.315 134.746 561.389 134.913C561.458 135.068 561.462 135.18 561.462 135.2H557.462ZM561.248 138.391C565.736 137.971 569.739 136.841 573.214 134.959L571.309 131.441C568.384 133.026 564.92 134.029 560.875 134.409L561.248 138.391ZM573.269 134.928C576.638 132.963 579.285 130.719 581.096 128.153L577.828 125.847C576.439 127.815 574.285 129.704 571.254 131.472L573.269 134.928ZM581.14 128.088C584.42 123.031 586.354 118.431 586.656 114.348L582.667 114.052C582.436 117.169 580.903 121.102 577.784 125.912L581.14 128.088ZM586.655 114.366L586.855 111.966L582.869 111.634L582.669 114.034L586.655 114.366ZM586.862 111.8C586.862 107.988 586.112 104.759 584.276 102.454C582.372 100.062 579.573 99 576.262 99V103C578.684 103 580.185 103.738 581.147 104.946C582.178 106.241 582.862 108.412 582.862 111.8H586.862ZM576.262 99C571.294 99 567.243 101.225 564.234 105.438L567.489 107.762C569.814 104.508 572.696 103 576.262 103V99ZM564.262 105.4C559.525 111.715 557.262 120.049 557.262 130.2H561.262C561.262 120.618 563.398 113.218 567.462 107.8L564.262 105.4ZM600.862 156.8C600.862 161.579 599.858 165.704 597.911 169.234L601.413 171.166C603.732 166.962 604.862 162.154 604.862 156.8H600.862ZM597.899 169.256C596.004 172.793 593.859 175.321 591.515 176.962L593.809 180.238C596.798 178.146 599.32 175.074 601.425 171.144L597.899 169.256ZM591.532 176.949C589.192 178.551 586.382 179.871 583.074 180.888L584.25 184.712C587.875 183.596 591.065 182.116 593.791 180.251L591.532 176.949ZM583.082 180.886C578.842 182.171 574.838 182.8 571.062 182.8V186.8C575.285 186.8 579.681 186.096 584.242 184.714L583.082 180.886ZM571.062 182.8C560.445 182.8 552.865 178.869 547.95 171.128L544.573 173.272C550.325 182.331 559.279 186.8 571.062 186.8V182.8ZM547.95 171.128C542.873 163.131 540.262 152.866 540.262 140.2H536.262C536.262 153.401 538.984 164.469 544.573 173.272L547.95 171.128ZM540.262 140.2C540.262 127.484 543.435 116.267 549.743 106.484L546.381 104.316C539.622 114.8 536.262 126.782 536.262 140.2H540.262ZM549.733 106.499C555.992 96.9846 565.264 92.2 577.862 92.2V88.2C564.059 88.2 553.465 93.5487 546.391 104.301L549.733 106.499ZM577.862 92.2C589.353 92.2 596.651 96.1702 600.479 103.706L604.045 101.894C599.339 92.6298 590.37 88.2 577.862 88.2V92.2ZM600.503 103.753C602.116 106.729 602.862 109.47 602.862 112H606.862C606.862 108.663 605.875 105.271 604.02 101.847L600.503 103.753ZM602.862 112C602.862 114.751 602.73 116.904 602.485 118.496L606.438 119.104C606.727 117.229 606.862 114.849 606.862 112H602.862ZM602.489 118.471C602.273 119.767 601.454 122.011 599.859 125.335L603.465 127.065C605.069 123.723 606.117 121.033 606.435 119.129L602.489 118.471ZM599.859 125.335C598.358 128.46 596.358 131.276 593.848 133.786L596.676 136.614C599.499 133.791 601.765 130.606 603.465 127.065L599.859 125.335ZM593.848 133.786C591.446 136.187 587.518 138.599 581.889 140.955L583.434 144.645C589.272 142.201 593.744 139.546 596.676 136.614L593.848 133.786ZM581.889 140.955C576.375 143.263 569.841 144.826 562.256 145.611L562.668 149.589C570.549 148.774 577.481 147.137 583.434 144.645L581.889 140.955ZM562.462 145.6C561.681 145.6 560.722 145.765 559.945 146.445C559.117 147.169 558.862 148.15 558.862 149H562.862C562.862 148.952 562.869 148.999 562.831 149.099C562.788 149.212 562.706 149.344 562.579 149.455C562.335 149.668 562.176 149.6 562.462 149.6V145.6ZM558.862 149C558.862 150.543 559.355 152.603 560.164 155.032L563.959 153.768C563.169 151.397 562.862 149.857 562.862 149H558.862ZM560.212 155.161C561.183 157.519 562.241 159.575 563.398 161.309L566.726 159.091C565.749 157.625 564.807 155.815 563.911 153.639L560.212 155.161ZM563.489 161.436C566.881 165.753 571.856 167.8 578.062 167.8V163.8C572.8 163.8 569.109 162.114 566.634 158.964L563.489 161.436ZM578.062 167.8C584.275 167.8 589.637 165.759 594.026 161.662L591.297 158.738C587.687 162.108 583.315 163.8 578.062 163.8V167.8ZM594.03 161.659C596.372 159.463 598.252 156.775 599.682 153.628L596.041 151.972C594.805 154.692 593.218 156.937 591.294 158.741L594.03 161.659ZM599.651 153.694C599.836 153.324 599.975 153.191 600.011 153.162C600.024 153.152 600.01 153.165 599.97 153.18C599.929 153.195 599.889 153.2 599.862 153.2V149.2C597.962 149.2 596.759 150.534 596.073 151.906L599.651 153.694ZM599.862 153.2C599.825 153.2 599.771 153.191 599.719 153.168C599.671 153.147 599.665 153.132 599.698 153.164C599.78 153.247 599.969 153.499 600.182 154.083L603.941 152.717C603.338 151.057 602.13 149.2 599.862 149.2V153.2ZM600.182 154.083C600.697 155.499 600.862 156.362 600.862 156.8H604.862C604.862 155.638 604.493 154.235 603.941 152.717L600.182 154.083ZM672.941 127.4L670.946 127.269L670.934 127.448L670.954 127.627L672.941 127.4ZM673.741 134.4H675.741V134.286L675.728 134.173L673.741 134.4ZM653.341 120L655.255 120.582L655.255 120.582L653.341 120ZM652.741 106.2L651.156 107.419L651.18 107.45L651.205 107.48L652.741 106.2ZM640.341 106.4L638.927 104.986L638.927 104.986L640.341 106.4ZM637.141 111.8L639.064 112.349L639.083 112.285L639.097 112.219L637.141 111.8ZM636.341 114.6L634.418 114.051L634.394 114.134L634.378 114.22L636.341 114.6ZM635.541 158.2L633.544 158.295L633.544 158.297L635.541 158.2ZM636.341 169.6L634.357 169.848L634.358 169.856L634.359 169.864L636.341 169.6ZM630.541 181.2L629.67 179.4L629.647 179.411L629.624 179.423L630.541 181.2ZM611.941 181.8L609.967 181.482L609.941 181.64V181.8H611.941ZM612.941 175.6L614.916 175.918L614.916 175.918L612.941 175.6ZM613.741 92.2H611.741V92.398L611.78 92.5922L613.741 92.2ZM632.341 97.2L634.282 96.7149L634.231 96.5126L634.14 96.3251L632.341 97.2ZM635.741 96.2L634.475 94.6521L634.475 94.6521L635.741 96.2ZM662.541 93L663.29 91.1453L663.281 91.1419L663.273 91.1385L662.541 93ZM673.941 112.2L675.937 112.331L675.941 112.266V112.2H673.941ZM670.954 127.627L671.754 134.627L675.728 134.173L674.928 127.173L670.954 127.627ZM671.741 134.4C671.741 134.705 671.674 134.879 671.6 134.995C671.523 135.118 671.363 135.294 671.008 135.481C670.239 135.887 668.831 136.2 666.541 136.2V140.2C669.052 140.2 671.244 139.88 672.875 139.019C673.72 138.573 674.46 137.957 674.982 137.13C675.509 136.296 675.741 135.362 675.741 134.4H671.741ZM666.541 136.2C661.868 136.2 658.729 135.31 656.795 133.853C654.968 132.476 653.941 130.382 653.941 127.2H649.941C649.941 131.351 651.349 134.757 654.388 137.047C657.321 139.257 661.481 140.2 666.541 140.2V136.2ZM653.941 127.2C653.941 125.766 654.339 123.592 655.255 120.582L651.428 119.418C650.477 122.542 649.941 125.168 649.941 127.2H653.941ZM655.255 120.582C656.224 117.398 656.741 114.527 656.741 112H652.741C652.741 114.006 652.326 116.468 651.428 119.418L655.255 120.582ZM656.741 112C656.741 109.31 655.938 106.912 654.278 104.92L651.205 107.48C652.212 108.688 652.741 110.157 652.741 112H656.741ZM654.327 104.981C652.552 102.673 649.984 101.6 646.941 101.6V105.6C648.965 105.6 650.264 106.26 651.156 107.419L654.327 104.981ZM646.941 101.6C643.853 101.6 641.151 102.762 638.927 104.986L641.756 107.814C643.265 106.305 644.963 105.6 646.941 105.6V101.6ZM638.927 104.986C636.998 106.915 635.687 109.044 635.186 111.381L639.097 112.219C639.396 110.823 640.218 109.352 641.756 107.814L638.927 104.986ZM635.218 111.251L634.418 114.051L638.264 115.149L639.064 112.349L635.218 111.251ZM634.378 114.22C633.538 118.559 633.141 125.661 633.141 135.4H637.141C637.141 125.672 637.545 118.908 638.305 114.98L634.378 114.22ZM633.141 135.4C633.141 145.013 633.275 152.649 633.544 158.295L637.539 158.105C637.275 152.551 637.141 144.987 637.141 135.4H633.141ZM633.544 158.297C633.81 163.761 634.08 167.631 634.357 169.848L638.326 169.352C638.07 167.303 637.806 163.572 637.539 158.103L633.544 158.297ZM634.359 169.864C634.491 170.858 634.589 171.642 634.654 172.221C634.686 172.511 634.709 172.741 634.723 172.916C634.731 173.003 634.735 173.072 634.738 173.123C634.741 173.178 634.741 173.2 634.741 173.2H638.741C638.741 172.633 638.581 171.266 638.324 169.336L634.359 169.864ZM634.741 173.2C634.741 175.479 633.416 177.587 629.67 179.4L631.413 183C635.933 180.813 638.741 177.587 638.741 173.2H634.741ZM629.624 179.423C625.738 181.428 621.917 182.4 618.141 182.4V186.4C622.632 186.4 627.078 185.238 631.459 182.977L629.624 179.423ZM618.141 182.4C616.154 182.4 614.926 182.183 614.265 181.906C613.955 181.775 613.883 181.679 613.895 181.693C613.93 181.738 613.941 181.803 613.941 181.8H609.941C609.941 182.664 610.211 183.487 610.763 184.182C611.291 184.846 611.995 185.291 612.718 185.594C614.124 186.184 615.995 186.4 618.141 186.4V182.4ZM613.916 182.118L614.916 175.918L610.967 175.282L609.967 181.482L613.916 182.118ZM614.916 175.918C616.806 164.17 617.741 148.919 617.741 130.2H613.741C613.741 148.814 612.81 163.83 610.967 175.282L614.916 175.918ZM617.741 130.2C617.741 111.554 617.08 98.6965 615.703 91.8078L611.78 92.5922C613.069 99.0368 613.741 111.513 613.741 130.2H617.741ZM615.741 92.2C615.741 92.0996 615.76 92.108 615.731 92.1577C615.703 92.2067 615.689 92.1906 615.784 92.1365C616.034 91.9936 616.666 91.8 617.941 91.8V87.8C616.416 87.8 614.949 88.0064 613.799 88.6635C612.482 89.4161 611.741 90.6754 611.741 92.2H615.741ZM617.941 91.8C624.659 91.8 628.586 94.052 630.543 98.0749L634.14 96.3251C631.297 90.4813 625.624 87.8 617.941 87.8V91.8ZM630.401 97.6851C630.496 98.0639 630.661 98.559 630.991 99C631.364 99.4973 632.022 100 632.941 100V96C633.226 96 633.505 96.0756 633.746 96.2135C633.975 96.344 634.116 96.4992 634.191 96.6C634.322 96.7743 634.32 96.8694 634.282 96.7149L630.401 97.6851ZM632.941 100C633.47 100 633.916 99.822 634.162 99.7113C634.453 99.5806 634.744 99.4115 635.023 99.2324C635.583 98.8723 636.25 98.3676 637.008 97.7479L634.475 94.6521C633.766 95.2324 633.233 95.6277 632.86 95.8676C632.672 95.9885 632.564 96.0443 632.521 96.0637C632.433 96.103 632.612 96 632.941 96V100ZM637.008 97.7479C641.03 94.4573 645.775 92.8 651.341 92.8V88.8C644.907 88.8 639.253 90.7427 634.475 94.6521L637.008 97.7479ZM651.341 92.8C654.806 92.8 658.292 93.4795 661.81 94.8615L663.273 91.1385C659.324 89.5872 655.343 88.8 651.341 88.8V92.8ZM661.793 94.8547C665.23 96.2416 667.718 98.3362 669.372 101.121C671.04 103.931 671.941 107.585 671.941 112.2H675.941C675.941 107.082 674.943 102.669 672.811 99.0789C670.665 95.4638 667.453 92.8251 663.29 91.1453L661.793 94.8547ZM671.946 112.069L670.946 127.269L674.937 127.531L675.937 112.331L671.946 112.069ZM700.835 234.2L699.857 235.944L699.866 235.949L699.875 235.954L700.835 234.2ZM700.235 202.6L698.456 201.686L698.451 201.696L700.235 202.6ZM702.635 163.4L700.755 164.082L700.758 164.089L700.76 164.096L702.635 163.4ZM692.035 133.8L690.138 134.432L690.143 134.447L690.148 134.462L692.035 133.8ZM683.635 113.8L681.846 114.694L681.859 114.719L681.872 114.743L683.635 113.8ZM677.235 103.4L678.485 101.838L678.435 101.798L678.382 101.762L677.235 103.4ZM675.235 102L676.382 100.362L676.291 100.298L676.193 100.244L675.235 102ZM681.635 93.8L682.254 95.7017L682.267 95.6975L682.281 95.693L681.635 93.8ZM702.035 95.6L703.903 94.8847L703.892 94.8576L703.881 94.8308L702.035 95.6ZM709.835 121.6L707.896 122.091L707.907 122.133L707.92 122.175L709.835 121.6ZM729.835 141.6L727.978 140.857L727.974 140.869L727.969 140.88L729.835 141.6ZM726.635 101.4L727.202 99.482L727.116 99.4565L727.027 99.4388L726.635 101.4ZM734.035 92.6L734.68 94.4933L734.698 94.4872L734.715 94.4807L734.035 92.6ZM749.635 127.2L751.438 128.065L751.445 128.052L751.451 128.038L749.635 127.2ZM737.635 150.8L735.858 149.883L735.854 149.89L737.635 150.8ZM722.035 183.2L720.206 182.39L720.193 182.42L720.181 182.45L722.035 183.2ZM716.435 236.4C716.435 236.892 716.314 236.893 716.421 236.786C716.528 236.678 716.527 236.8 716.035 236.8V240.8C717.143 240.8 718.342 240.522 719.249 239.614C720.157 238.707 720.435 237.508 720.435 236.4H716.435ZM716.035 236.8H715.835V240.8H716.035V236.8ZM715.835 236.8C711.888 236.8 707.225 235.419 701.796 232.446L699.875 235.954C705.645 239.114 710.982 240.8 715.835 240.8V236.8ZM701.814 232.456C696.594 229.528 694.635 226.524 694.635 223.6H690.635C690.635 228.676 694.143 232.739 699.857 235.944L701.814 232.456ZM694.635 223.6C694.635 221.953 695.172 219.467 696.416 216.031C697.645 212.635 699.506 208.464 702.019 203.504L698.451 201.696C695.897 206.736 693.959 211.065 692.655 214.669C691.365 218.233 690.635 221.247 690.635 223.6H694.635ZM702.014 203.514C704.564 198.548 706.5 194.36 707.802 190.967C709.081 187.636 709.835 184.859 709.835 182.8H705.835C705.835 184.074 705.323 186.264 704.068 189.533C702.837 192.74 700.973 196.786 698.456 201.686L702.014 203.514ZM709.835 182.8C709.835 180.735 709.347 178.016 708.467 174.732C707.578 171.417 706.256 167.404 704.51 162.704L700.76 164.096C702.481 168.73 703.759 172.616 704.603 175.768C705.456 178.95 705.835 181.265 705.835 182.8H709.835ZM704.515 162.718C700.116 150.588 696.586 140.729 693.922 133.138L690.148 134.462C692.818 142.071 696.354 151.945 700.755 164.082L704.515 162.718ZM693.933 133.168C691.371 125.484 688.529 118.709 685.399 112.857L681.872 114.743C684.874 120.357 687.632 126.916 690.138 134.432L693.933 133.168ZM685.424 112.906C683.945 109.947 682.649 107.556 681.538 105.752C680.472 104.019 679.45 102.611 678.485 101.838L675.986 104.962C676.353 105.256 677.065 106.114 678.132 107.848C679.155 109.511 680.392 111.786 681.846 114.694L685.424 112.906ZM678.382 101.762L676.382 100.362L674.088 103.638L676.088 105.038L678.382 101.762ZM676.193 100.244C675.583 99.9117 675.263 99.6363 675.112 99.4581C674.982 99.3046 675.035 99.2971 675.035 99.4H671.035C671.035 101.507 672.683 102.886 674.277 103.756L676.193 100.244ZM675.035 99.4C675.035 99.5507 674.952 99.1388 676.277 98.276C677.492 97.4843 679.448 96.6153 682.254 95.7017L681.016 91.8983C678.089 92.8513 675.745 93.849 674.094 94.924C672.552 95.9279 671.035 97.3826 671.035 99.4H675.035ZM682.281 95.693C688.017 93.7372 692.924 92.8 697.035 92.8V88.8C692.346 88.8 686.986 89.8627 680.99 91.907L682.281 95.693ZM697.035 92.8C697.739 92.8 698.92 93.3243 700.189 96.3692L703.881 94.8308C702.483 91.4757 700.332 88.8 697.035 88.8V92.8ZM700.167 96.3153C702.527 102.475 705.104 111.055 707.896 122.091L711.774 121.109C708.966 110.011 706.344 101.258 703.903 94.8847L700.167 96.3153ZM707.92 122.175C711.323 133.519 714.105 142.072 716.263 147.805C717.339 150.661 718.282 152.88 719.093 154.411C719.493 155.166 719.904 155.839 720.331 156.351C720.545 156.607 720.814 156.885 721.143 157.113C721.466 157.335 721.978 157.6 722.635 157.6V153.6C723.075 153.6 723.351 153.776 723.417 153.822C723.491 153.872 723.484 153.885 723.401 153.787C723.237 153.59 722.978 153.2 722.628 152.539C721.938 151.236 721.065 149.206 720.007 146.395C717.898 140.795 715.148 132.348 711.751 121.025L707.92 122.175ZM722.635 157.6C723.423 157.6 724.022 157.23 724.369 156.96C724.742 156.67 725.066 156.307 725.344 155.947C725.904 155.22 726.494 154.22 727.114 153.015C728.364 150.585 729.894 147.005 731.701 142.32L727.969 140.88C726.176 145.528 724.707 148.949 723.557 151.185C722.976 152.314 722.516 153.063 722.177 153.503C722.096 153.608 722.031 153.684 721.982 153.736C721.931 153.789 721.908 153.807 721.914 153.803C721.917 153.8 721.973 153.756 722.081 153.709C722.192 153.661 722.383 153.6 722.635 153.6V157.6ZM731.692 142.343C735.46 132.924 737.435 125.111 737.435 119H733.435C733.435 124.356 731.677 131.609 727.978 140.857L731.692 142.343ZM737.435 119C737.435 113.838 736.683 109.524 735.024 106.206C733.329 102.816 730.708 100.518 727.202 99.482L726.068 103.318C728.429 104.015 730.208 105.517 731.446 107.994C732.72 110.542 733.435 114.162 733.435 119H737.435ZM727.027 99.4388C726.816 99.3966 726.682 99.3483 726.606 99.3126C726.532 99.2781 726.526 99.2622 726.549 99.2858C726.577 99.3139 726.608 99.3584 726.627 99.407C726.644 99.4509 726.635 99.4573 726.635 99.4H722.635C722.635 100.388 722.962 101.355 723.721 102.114C724.432 102.825 725.352 103.183 726.243 103.361L727.027 99.4388ZM726.635 99.4C726.635 99.1558 726.789 98.5104 728.157 97.5204C729.488 96.5579 731.621 95.5345 734.68 94.4933L733.391 90.7067C730.183 91.7988 727.616 92.9754 725.813 94.2795C724.048 95.5563 722.635 97.2442 722.635 99.4H726.635ZM734.715 94.4807C740.829 92.2695 746.261 91.2 751.035 91.2V87.2C745.676 87.2 739.775 88.3971 733.355 90.7192L734.715 94.4807ZM751.035 91.2C752.764 91.2 753.76 91.7359 754.399 92.5676C755.114 93.4996 755.635 95.133 755.635 97.8H759.635C759.635 94.7337 759.057 92.0671 757.572 90.1324C756.01 88.0974 753.706 87.2 751.035 87.2V91.2ZM755.635 97.8C755.635 101.93 754.756 106.851 752.929 112.594L756.741 113.806C758.647 107.816 759.635 102.47 759.635 97.8H755.635ZM752.929 112.594C751.075 118.423 749.37 123.002 747.819 126.362L751.451 128.038C753.1 124.465 754.862 119.711 756.741 113.806L752.929 112.594ZM747.832 126.335C746.247 129.636 742.262 137.474 735.858 149.883L739.412 151.717C745.808 139.326 749.823 131.431 751.438 128.065L747.832 126.335ZM735.854 149.89C729.576 162.179 724.359 173.014 720.206 182.39L723.864 184.01C727.978 174.72 733.161 163.954 739.416 151.71L735.854 149.89ZM720.181 182.45C715.556 193.878 713.235 205.532 713.235 217.4H717.235C717.235 206.068 719.448 194.922 723.889 183.95L720.181 182.45ZM713.235 217.4C713.235 223.595 713.767 228.467 714.946 231.857L718.724 230.543C717.77 227.8 717.235 223.472 717.235 217.4H713.235ZM714.946 231.857C715.477 233.382 715.867 234.556 716.124 235.388C716.252 235.806 716.341 236.118 716.395 236.335C716.468 236.627 716.435 236.582 716.435 236.4H720.435C720.435 236.018 720.336 235.606 720.275 235.365C720.196 235.049 720.085 234.66 719.947 234.212C719.669 233.311 719.26 232.084 718.724 230.543L714.946 231.857Z" fill="url(#paint1_angular)"/>
<defs>
<radialGradient id="paint0_angular" cx="0" cy="0" r="1" gradientUnits="userSpaceOnUse" gradientTransform="translate(378.398 277.248) scale(131.474 48.4114)">
<stop stop-color="#F0AD4E"/>
<stop offset="0.496945" stop-color="#F0AD4E"/>
<stop offset="0.747741" stop-color="#FED859"/>
</radialGradient>
<radialGradient id="paint1_angular" cx="0" cy="0" r="1" gradientUnits="userSpaceOnUse" gradientTransform="translate(378 123) rotate(180) scale(165 101.398)">
<stop stop-color="#F0AD4E"/>
<stop offset="0.496945" stop-color="#F0AD4E"/>
<stop offset="0.747741" stop-color="#FED859"/>
</radialGradient>
</defs>
</svg>
