<svg width="336" height="100" viewBox="0 0 336 100" fill="none" xmlns="http://www.w3.org/2000/svg">
<rect x="-1" width="337" height="100" fill="url(#paint0_angular)"/>
<path d="M57.7715 58.7236H44.002L41.1211 67H34.7002L48.1279 31.4531H53.6699L67.1221 67H60.6768L57.7715 58.7236ZM45.7354 53.7432H56.0381L50.8867 38.9971L45.7354 53.7432ZM84.2363 53.3037H77.3516V67H71.1748V31.4531H83.6748C87.7764 31.4531 90.9421 32.3727 93.1719 34.2119C95.4017 36.0511 96.5166 38.7122 96.5166 42.1953C96.5166 44.5716 95.9388 46.5654 94.7832 48.1768C93.6439 49.7718 92.0488 51.0007 89.998 51.8633L97.9814 66.6826V67H91.3652L84.2363 53.3037ZM77.3516 48.3477H83.6992C85.7826 48.3477 87.4102 47.8268 88.582 46.7852C89.7539 45.7272 90.3398 44.2868 90.3398 42.4639C90.3398 40.5596 89.7946 39.0866 88.7041 38.0449C87.6299 37.0033 86.0186 36.4661 83.8701 36.4336H77.3516V48.3477ZM126.839 36.4336H115.755V67H109.627V36.4336H98.6406V31.4531H126.839V36.4336ZM159.798 58.2109L165.267 31.4531H171.395L163.191 67H157.283L150.521 41.0479L143.611 67H137.679L129.476 31.4531H135.604L141.121 58.1621L147.908 31.4531H153.084L159.798 58.2109ZM204.28 50.1543C204.28 53.6374 203.678 56.6973 202.474 59.334C201.269 61.9544 199.544 63.9727 197.298 65.3887C195.068 66.7884 192.496 67.4883 189.583 67.4883C186.702 67.4883 184.131 66.7884 181.868 65.3887C179.622 63.9727 177.881 61.9626 176.644 59.3584C175.423 56.7542 174.804 53.7513 174.788 50.3496V48.3477C174.788 44.8809 175.398 41.821 176.619 39.168C177.856 36.515 179.59 34.4886 181.819 33.0889C184.065 31.6729 186.637 30.9648 189.534 30.9648C192.431 30.9648 194.995 31.6647 197.225 33.0645C199.471 34.4479 201.204 36.4499 202.425 39.0703C203.646 41.6745 204.264 44.71 204.28 48.1768V50.1543ZM198.104 48.2988C198.104 44.36 197.355 41.3408 195.857 39.2412C194.376 37.1416 192.269 36.0918 189.534 36.0918C186.865 36.0918 184.773 37.1416 183.26 39.2412C181.762 41.3245 180.997 44.2786 180.965 48.1035V50.1543C180.965 54.0605 181.722 57.0798 183.235 59.2119C184.765 61.3441 186.881 62.4102 189.583 62.4102C192.317 62.4102 194.417 61.3685 195.882 59.2852C197.363 57.2018 198.104 54.1582 198.104 50.1543V48.2988ZM223.494 53.3037H216.609V67H210.433V31.4531H222.933C227.034 31.4531 230.2 32.3727 232.43 34.2119C234.66 36.0511 235.774 38.7122 235.774 42.1953C235.774 44.5716 235.197 46.5654 234.041 48.1768C232.902 49.7718 231.307 51.0007 229.256 51.8633L237.239 66.6826V67H230.623L223.494 53.3037ZM216.609 48.3477H222.957C225.04 48.3477 226.668 47.8268 227.84 46.7852C229.012 45.7272 229.598 44.2868 229.598 42.4639C229.598 40.5596 229.052 39.0866 227.962 38.0449C226.888 37.0033 225.276 36.4661 223.128 36.4336H216.609V48.3477ZM251.839 51.6436L247.811 55.916V67H241.634V31.4531H247.811V48.1279L251.229 43.9043L261.629 31.4531H269.1L255.892 47.2002L269.856 67H262.532L251.839 51.6436ZM291.756 57.8447C291.756 56.2822 291.202 55.0778 290.096 54.2314C289.005 53.3851 287.028 52.5306 284.163 51.668C281.299 50.8053 279.02 49.8451 277.327 48.7871C274.088 46.7526 272.469 44.0996 272.469 40.8281C272.469 37.9635 273.632 35.6035 275.96 33.748C278.304 31.8926 281.339 30.9648 285.066 30.9648C287.54 30.9648 289.746 31.4206 291.683 32.332C293.619 33.2435 295.141 34.5456 296.248 36.2383C297.355 37.9147 297.908 39.7783 297.908 41.8291H291.756C291.756 39.9736 291.17 38.5251 289.998 37.4834C288.842 36.4255 287.182 35.8965 285.018 35.8965C282.999 35.8965 281.429 36.3278 280.306 37.1904C279.199 38.0531 278.646 39.2575 278.646 40.8037C278.646 42.1058 279.248 43.1963 280.452 44.0752C281.657 44.9378 283.642 45.7842 286.409 46.6143C289.176 47.4281 291.398 48.3639 293.074 49.4219C294.751 50.4635 295.979 51.668 296.761 53.0352C297.542 54.3861 297.933 55.973 297.933 57.7959C297.933 60.7581 296.793 63.1182 294.515 64.876C292.252 66.6175 289.176 67.4883 285.286 67.4883C282.715 67.4883 280.346 67.0163 278.182 66.0723C276.033 65.112 274.357 63.7936 273.152 62.1172C271.964 60.4408 271.37 58.4876 271.37 56.2578H277.547C277.547 58.276 278.214 59.8385 279.549 60.9453C280.883 62.0521 282.796 62.6055 285.286 62.6055C287.435 62.6055 289.046 62.1742 290.12 61.3115C291.211 60.4326 291.756 59.277 291.756 57.8447Z" fill="white"/>
<defs>
<radialGradient id="paint0_angular" cx="0" cy="0" r="1" gradientUnits="userSpaceOnUse" gradientTransform="translate(167.276 50.2041) rotate(180) scale(73.8446 41.3869)">
<stop stop-color="#F0AD4E"/>
<stop offset="0.496945" stop-color="#F0AD4E"/>
<stop offset="0.747741" stop-color="#FED859"/>
</radialGradient>
</defs>
</svg>
