<svg width="874" height="883" viewBox="0 0 874 883" fill="none" xmlns="http://www.w3.org/2000/svg">
<rect x="78" y="78.0312" width="791" height="799" rx="15" stroke="url(#paint0_angular)" stroke-width="10"/>
<path d="M20.3963 270.394C14.5246 271.405 9.07629 272.155 3.14626 272.84C1.66221 273.011 -0.380576 273.787 0.0612676 275.697C0.624397 278.133 4.19266 278.127 6.11283 278.127C10.8388 278.127 18.8162 275.263 20.3963 270.394ZM20.3963 250.159C18.8162 245.291 10.8388 242.427 6.11283 242.427C4.19266 242.427 0.624397 242.421 0.0612676 244.857C-0.380576 246.767 1.66215 247.543 3.14626 247.714C9.07629 248.398 14.5246 249.149 20.3963 250.159ZM39.441 260.277C32.8105 255.817 21.4396 250.477 13.2546 251.459C8.81919 251.992 3.5293 255.245 3.5293 260.277C3.5293 265.309 8.81919 268.562 13.2546 269.095C21.3878 270.071 32.848 264.712 39.441 260.277ZM34.0847 259.682V260.872C29.0771 263.1 22.2151 265.965 16.6558 264.654C14.6127 264.173 11.2524 262.824 11.2524 260.277C11.2524 257.694 14.6633 256.373 16.7243 255.9C22.468 254.58 28.8444 257.66 34.0847 259.682ZM32.2992 265.038C25.3378 268.914 18.33 274.694 15.3252 282.297C14.4655 284.473 13.1858 290.295 16.316 291.313C18.4734 292.015 19.966 289.969 20.657 288.24C22.8001 282.874 23.8291 277.694 27.1572 272.775C28.8718 270.24 32.348 268.18 32.2992 265.038ZM26.9429 260.872V259.682C24.4189 258.089 14.7168 253.807 14.7168 260.277C14.7168 266.747 24.4189 262.465 26.9429 260.872ZM32.2992 255.516C32.348 252.373 28.8718 250.314 27.1572 247.779C23.8291 242.859 22.8001 237.68 20.657 232.314C19.966 230.585 18.4734 228.539 16.316 229.241C13.1858 230.259 14.4655 236.081 15.3252 238.257C18.33 245.86 25.3378 251.64 32.2992 255.516ZM19.8012 259.682H24.5624V260.872H19.8012V259.682ZM53.1293 378.711H53.7245C60.5621 391.853 66.7689 403.889 65.1311 419.181C64.3383 426.581 61.4382 434.071 54.3196 437.63C45.5287 442.026 38.1465 432.592 41.2264 424.537H41.8216C41.9055 432.057 50.5548 436.453 55.3052 429.243C61.4501 419.916 46.9279 410.776 38.8482 415.225C28.4986 420.923 29.3961 435.381 37.164 442.808C41.9275 447.363 48.089 448.304 54.3196 446.982C66.6505 444.368 71.9056 432.342 72.8203 420.966C74.4701 400.437 65.3138 375.066 46.5827 364.427C52.5342 361.789 57.4834 359.997 61.9464 354.905C72.5329 342.827 71.8241 322.32 65.4435 308.484C62.0238 301.068 56.136 296.343 51.3439 290.034C56.6836 293.424 60.9055 303.486 66.8153 304.57C71.7169 305.468 71.5753 299.388 69.4524 296.634C66.2785 292.517 59.7884 290.567 54.9148 289.439V288.844C59.0505 288.844 63.5188 289.025 66.613 285.741C68.3686 283.877 69.5232 280.324 66.7297 278.751C62.7869 276.532 56.3349 281.425 51.9391 281.002C45.4866 280.38 44.1546 275.797 39.4411 272.775C39.863 280.904 48.1237 282.926 50.1537 289.439C44.332 283.617 29.7134 268.37 44.7974 262.818C49.9859 260.907 52.6087 266.862 51.9391 270.99H51.344C50.2722 264.105 41.0629 266.767 43.8053 272.115C47.2619 278.855 57.1199 270.648 53.2139 264.469C46.6554 254.093 34.8597 266.612 36.0493 275.156C37.467 285.337 45.7461 291.347 51.6416 298.962C62.1608 312.55 68.9234 336.507 54.6084 350.204C50.1418 354.478 42.8132 357.834 37.0694 354.023C33.3295 351.541 28.7523 343.775 35.2751 341.812C36.0023 348.322 43.5738 349.402 47.0905 344.137C51.1708 338.029 46.1216 331.03 39.4411 330.562C32.4892 330.075 26.8871 334.893 24.7416 341.217C23.077 346.122 23.7846 351.893 26.8175 356.093C30.9168 361.769 38.4906 361.405 42.4757 366.325C51.9409 378.011 52.7259 406.65 31.109 402.517C37.2057 398.904 41.117 388.371 30.5139 387.125C18.9919 385.771 17.9652 401.043 24.6243 407.082C33.8658 415.462 47.9832 408.96 52.5932 398.946C55.4928 392.647 54.4798 385.256 53.1294 378.711H53.1293ZM31.109 118.632V118.037C52.664 113.916 52.4492 143.359 42.0544 154.8C37.9598 159.308 30.8418 158.889 26.8175 164.461C23.7846 168.661 23.077 174.432 24.7416 179.337C26.8871 185.661 32.4892 190.479 39.4411 189.992C46.1216 189.524 51.1708 182.525 47.0905 176.417C43.5738 171.152 36.0023 172.232 35.2751 178.742C28.7523 176.779 33.3295 169.013 37.0694 166.531C42.8132 162.719 50.1418 166.076 54.6084 170.35C68.9359 184.058 62.1703 207.987 51.6416 221.592C45.7871 229.157 37.3289 235.247 36.0428 245.398C34.968 253.885 46.6144 266.525 53.2139 256.085C57.1193 249.906 47.2619 241.699 43.8053 248.439C41.0629 253.787 50.2722 256.449 51.344 249.564H51.9391C52.6087 253.692 49.9859 259.647 44.7974 257.736C29.7134 252.184 44.332 236.937 50.1537 231.115C48.1237 237.628 39.863 239.65 39.4411 247.779C44.0231 244.841 45.6913 240.155 51.9391 239.552C56.3349 239.128 62.7869 244.022 66.7297 241.802C69.5221 240.23 68.3705 236.676 66.613 234.813C63.5932 231.612 58.9654 231.711 54.9148 231.71V231.115C59.7551 229.968 66.2999 228.009 69.4524 223.92C71.3545 221.453 71.9485 215.579 67.4039 215.902C62.6148 216.242 61.0698 221.31 58.5309 224.515C56.386 227.222 53.4971 229.094 50.7488 231.115C55.6427 224.527 61.8899 219.776 65.4435 212.07C71.8282 198.224 72.5489 177.745 61.9464 165.649C57.4834 160.557 52.5342 158.765 46.5827 156.126C65.331 145.478 74.4719 120.137 72.8203 99.5876C71.9056 88.2119 66.6505 76.1865 54.3196 73.5714C47.8064 72.1906 41.4014 73.353 36.5754 78.2659C29.239 85.735 28.8885 99.8441 38.8482 105.329C46.922 109.776 61.4293 100.606 55.3052 91.3109C50.5548 84.1007 41.9055 88.497 41.8216 96.0167H41.2264C38.1465 87.962 45.5287 78.5283 54.3196 82.9235C61.4382 86.4831 64.3383 93.973 65.1311 101.373C66.7707 116.678 60.5431 128.677 53.7245 141.843C53.1728 135.664 55.5129 129.588 53.3079 123.393C49.3026 112.14 32.9158 103.828 23.5976 114.522C17.9985 120.947 19.7238 134.697 30.5138 133.429C39.6493 132.356 39.0488 120.991 31.109 118.632H31.109ZM39.441 261.467C32.1886 265.896 31.3702 274.654 33.02 282.297C36.2337 297.185 48.977 307.974 50.7779 323.362C51.4814 329.373 49.546 335.264 50.2185 341.214C50.4893 343.612 52.2206 345.824 54.8898 344.915C63.0034 342.15 60.3497 325.181 58.9404 319.196C55.1374 303.047 36.0594 292.822 34.7352 276.346C34.2507 270.312 37.4366 266.763 39.441 261.467ZM39.441 259.087C37.4366 253.791 34.2507 250.242 34.7352 244.208C36.0701 227.6 55.4617 217.72 58.9106 201.358C60.1907 195.283 63.179 178.464 54.8898 175.639C51.8748 174.612 50.3357 177.389 50.1798 179.933C49.8102 185.968 51.4713 191.711 50.7166 197.787C48.8395 212.896 36.1879 223.583 33.02 238.257C31.3607 245.943 32.2231 254.554 39.441 259.087ZM50.7488 289.439L51.3439 290.034L50.7488 289.439Z" fill="url(#paint1_angular)"/>
<mask id="path-3-inside-1" fill="white">
<path d="M270.363 20.4276C271.374 14.5559 272.124 9.10754 272.809 3.17751C272.98 1.69346 273.756 -0.349326 275.666 0.0925176C278.101 0.655647 278.095 4.22391 278.095 6.14408C278.095 10.8701 275.231 18.8475 270.363 20.4276ZM250.128 20.4276C245.26 18.8475 242.396 10.8701 242.396 6.14408C242.396 4.22391 242.389 0.655647 244.825 0.0925176C246.736 -0.349326 247.511 1.6934 247.683 3.17751C248.367 9.10754 249.118 14.5558 250.128 20.4276ZM260.246 39.4722C255.786 32.8417 250.445 21.4709 251.428 13.2858C251.961 8.85044 255.214 3.56055 260.246 3.56055C265.278 3.56055 268.531 8.85044 269.063 13.2858C270.039 21.4191 264.681 32.8792 260.246 39.4722ZM259.651 34.1159H260.841C263.069 29.1084 265.934 22.2463 264.623 16.6871C264.142 14.644 262.793 11.2837 260.246 11.2837C257.663 11.2837 256.342 14.6946 255.868 16.7555C254.548 22.4993 257.629 28.8757 259.651 34.1159ZM265.007 32.3305C268.882 25.3691 274.663 18.3612 282.266 15.3565C284.441 14.4967 290.264 13.2171 291.282 16.3472C291.984 18.5047 289.938 19.9973 288.209 20.6882C282.843 22.8314 277.663 23.8604 272.744 27.1884C270.208 28.9031 268.149 32.3793 265.007 32.3305ZM260.841 26.9742H259.651C258.058 24.4502 253.776 14.748 260.246 14.748C266.716 14.748 262.433 24.4502 260.841 26.9742ZM255.485 32.3305C252.342 32.3793 250.283 28.9031 247.748 27.1884C242.828 23.8604 237.649 22.8314 232.283 20.6882C230.554 19.9973 228.508 18.5047 229.209 16.3472C230.228 13.217 236.05 14.4967 238.225 15.3565C245.829 18.3612 251.609 25.3691 255.485 32.3305ZM259.651 19.8324V24.5936H260.841V19.8324H259.651ZM378.68 53.1606V53.7557C391.822 60.5934 403.857 66.8002 419.15 65.1623C426.55 64.3696 434.04 61.4694 437.599 54.3509C441.995 45.56 432.561 38.1778 424.506 41.2577V41.8528C432.026 41.9367 436.422 50.586 429.212 55.3365C419.885 61.4813 410.745 46.9592 415.194 38.8795C420.892 28.5299 435.35 29.4274 442.776 37.1952C447.331 41.9588 448.272 48.1203 446.951 54.3509C444.336 66.6817 432.311 71.9369 420.935 72.8516C400.406 74.5014 375.035 65.345 364.396 46.614C361.758 52.5655 359.965 57.5147 354.874 61.9777C342.796 72.5641 322.289 71.8553 308.453 65.4748C301.037 62.0551 296.312 56.1673 290.003 51.3752C293.393 56.7148 303.454 60.9368 304.538 66.8466C305.437 71.7482 299.356 71.6066 296.603 69.4837C292.486 66.3098 290.536 59.8197 289.408 54.946H288.813C288.813 59.0817 288.994 63.55 285.71 66.6442C283.846 68.3999 280.293 69.5545 278.72 66.761C276.501 62.8181 281.394 56.3661 280.97 51.9704C280.349 45.5178 275.766 44.1859 272.744 39.4723C280.872 39.8943 282.895 48.1549 289.408 50.1849C283.586 44.3632 268.339 29.7447 262.786 44.8286C260.876 50.0171 266.83 52.6399 270.958 51.9704V51.3753C264.074 50.3034 266.736 41.0941 272.084 43.8365C278.824 47.2931 270.617 57.1511 264.438 53.2452C254.062 46.6867 266.581 34.8909 275.124 36.0806C285.305 37.4982 291.315 45.7773 298.931 51.6728C312.519 62.192 336.476 68.9547 350.173 54.6396C354.447 50.173 357.803 42.8444 353.991 37.1007C351.51 33.3608 343.743 28.7835 341.781 35.3063C348.291 36.0336 349.371 43.605 344.106 47.1217C337.997 51.2021 330.999 46.1528 330.531 39.4723C330.044 32.5204 334.862 26.9183 341.186 24.7728C346.091 23.1082 351.862 23.8158 356.062 26.8487C361.738 30.9481 361.373 38.5219 366.294 42.507C377.98 51.9722 406.618 52.7572 402.486 31.1403C398.872 37.237 388.34 41.1483 387.093 30.5451C385.74 19.0231 401.011 17.9965 407.051 24.6556C415.431 33.897 408.929 48.0145 398.915 52.6245C392.616 55.524 385.225 54.5111 378.68 53.1607V53.1606ZM118.601 31.1403H118.006C113.885 52.6953 143.328 52.4804 154.769 42.0856C159.277 37.991 158.858 30.8731 164.43 26.8487C168.63 23.8158 174.401 23.1082 179.306 24.7728C185.63 26.9183 190.448 32.5204 189.961 39.4723C189.492 46.1528 182.494 51.2021 176.385 47.1217C171.121 43.605 172.2 36.0336 178.711 35.3063C176.748 28.7835 168.982 33.3608 166.5 37.1007C162.688 42.8444 166.045 50.173 170.319 54.6396C184.027 68.9672 207.956 62.2016 221.561 51.6728C229.126 45.8184 235.216 37.3602 245.367 36.074C253.854 34.9992 266.494 46.6456 256.053 53.2452C249.875 57.1505 241.668 47.2931 248.408 43.8365C253.756 41.0941 256.418 50.3034 249.533 51.3753V51.9704C253.661 52.6399 259.615 50.0171 257.705 44.8286C252.152 29.7447 236.905 44.3632 231.084 50.1849C237.596 48.1549 239.619 39.8943 247.748 39.4723C244.81 44.0544 240.124 45.7225 239.521 51.9704C239.097 56.3661 243.99 62.8181 241.771 66.761C240.199 69.5534 236.645 68.4017 234.782 66.6442C231.581 63.6244 231.679 58.9966 231.679 54.946H231.084C229.937 59.7864 227.978 66.3312 223.888 69.4837C221.421 71.3858 215.548 71.9797 215.87 67.4352C216.211 62.646 221.279 61.101 224.483 58.5621C227.191 56.4172 229.062 53.5284 231.084 50.78C224.496 55.6739 219.744 61.9212 212.039 65.4748C198.193 71.8595 177.713 72.5802 165.618 61.9777C160.526 57.5147 158.733 52.5655 156.095 46.614C145.446 65.3623 120.106 74.5031 99.5563 72.8516C88.1807 71.9369 76.1552 66.6817 73.5401 54.3509C72.1594 47.8376 73.3217 41.4327 78.2346 36.6066C85.7037 29.2703 99.8128 28.9197 105.298 38.8795C109.745 46.9532 100.575 61.4605 91.2797 55.3365C84.0695 50.586 88.4658 41.9367 95.9855 41.8528V41.2577C87.9308 38.1778 78.4971 45.56 82.8922 54.3509C86.4518 61.4694 93.9417 64.3696 101.342 65.1623C116.647 66.8019 128.646 60.5743 141.812 53.7557C135.633 53.204 129.557 55.5442 123.362 53.3392C112.109 49.3338 103.797 32.9471 114.49 23.6289C120.916 18.0297 134.666 19.7551 133.398 30.5451C132.324 39.6806 120.96 39.08 118.601 31.1402V31.1403ZM261.436 39.4722C265.865 32.2198 274.623 31.4015 282.266 33.0512C297.154 36.265 307.943 49.0083 323.331 50.8092C329.342 51.5126 335.232 49.5772 341.183 50.2497C343.58 50.5205 345.793 52.2518 344.884 54.9211C342.119 63.0347 325.15 60.3809 319.165 58.9716C303.015 55.1686 292.791 36.0906 276.315 34.7664C270.281 34.282 266.732 37.4678 261.436 39.4722ZM259.055 39.4722C253.76 37.4678 250.21 34.282 244.177 34.7664C227.569 36.1013 217.689 55.493 201.326 58.9418C195.252 60.222 178.433 63.2102 175.608 54.9211C174.58 51.9061 177.357 50.367 179.902 50.2111C185.936 49.8415 191.68 51.5025 197.755 50.7479C212.865 48.8708 223.551 36.2192 238.225 33.0512C245.912 31.392 254.523 32.2543 259.055 39.4722ZM289.408 50.78L290.003 51.3752L289.408 50.78Z"/>
</mask>
<path d="M270.363 20.4276C271.374 14.5559 272.124 9.10754 272.809 3.17751C272.98 1.69346 273.756 -0.349326 275.666 0.0925176C278.101 0.655647 278.095 4.22391 278.095 6.14408C278.095 10.8701 275.231 18.8475 270.363 20.4276ZM250.128 20.4276C245.26 18.8475 242.396 10.8701 242.396 6.14408C242.396 4.22391 242.389 0.655647 244.825 0.0925176C246.736 -0.349326 247.511 1.6934 247.683 3.17751C248.367 9.10754 249.118 14.5558 250.128 20.4276ZM260.246 39.4722C255.786 32.8417 250.445 21.4709 251.428 13.2858C251.961 8.85044 255.214 3.56055 260.246 3.56055C265.278 3.56055 268.531 8.85044 269.063 13.2858C270.039 21.4191 264.681 32.8792 260.246 39.4722ZM259.651 34.1159H260.841C263.069 29.1084 265.934 22.2463 264.623 16.6871C264.142 14.644 262.793 11.2837 260.246 11.2837C257.663 11.2837 256.342 14.6946 255.868 16.7555C254.548 22.4993 257.629 28.8757 259.651 34.1159ZM265.007 32.3305C268.882 25.3691 274.663 18.3612 282.266 15.3565C284.441 14.4967 290.264 13.2171 291.282 16.3472C291.984 18.5047 289.938 19.9973 288.209 20.6882C282.843 22.8314 277.663 23.8604 272.744 27.1884C270.208 28.9031 268.149 32.3793 265.007 32.3305ZM260.841 26.9742H259.651C258.058 24.4502 253.776 14.748 260.246 14.748C266.716 14.748 262.433 24.4502 260.841 26.9742ZM255.485 32.3305C252.342 32.3793 250.283 28.9031 247.748 27.1884C242.828 23.8604 237.649 22.8314 232.283 20.6882C230.554 19.9973 228.508 18.5047 229.209 16.3472C230.228 13.217 236.05 14.4967 238.225 15.3565C245.829 18.3612 251.609 25.3691 255.485 32.3305ZM259.651 19.8324V24.5936H260.841V19.8324H259.651ZM378.68 53.1606V53.7557C391.822 60.5934 403.857 66.8002 419.15 65.1623C426.55 64.3696 434.04 61.4694 437.599 54.3509C441.995 45.56 432.561 38.1778 424.506 41.2577V41.8528C432.026 41.9367 436.422 50.586 429.212 55.3365C419.885 61.4813 410.745 46.9592 415.194 38.8795C420.892 28.5299 435.35 29.4274 442.776 37.1952C447.331 41.9588 448.272 48.1203 446.951 54.3509C444.336 66.6817 432.311 71.9369 420.935 72.8516C400.406 74.5014 375.035 65.345 364.396 46.614C361.758 52.5655 359.965 57.5147 354.874 61.9777C342.796 72.5641 322.289 71.8553 308.453 65.4748C301.037 62.0551 296.312 56.1673 290.003 51.3752C293.393 56.7148 303.454 60.9368 304.538 66.8466C305.437 71.7482 299.356 71.6066 296.603 69.4837C292.486 66.3098 290.536 59.8197 289.408 54.946H288.813C288.813 59.0817 288.994 63.55 285.71 66.6442C283.846 68.3999 280.293 69.5545 278.72 66.761C276.501 62.8181 281.394 56.3661 280.97 51.9704C280.349 45.5178 275.766 44.1859 272.744 39.4723C280.872 39.8943 282.895 48.1549 289.408 50.1849C283.586 44.3632 268.339 29.7447 262.786 44.8286C260.876 50.0171 266.83 52.6399 270.958 51.9704V51.3753C264.074 50.3034 266.736 41.0941 272.084 43.8365C278.824 47.2931 270.617 57.1511 264.438 53.2452C254.062 46.6867 266.581 34.8909 275.124 36.0806C285.305 37.4982 291.315 45.7773 298.931 51.6728C312.519 62.192 336.476 68.9547 350.173 54.6396C354.447 50.173 357.803 42.8444 353.991 37.1007C351.51 33.3608 343.743 28.7835 341.781 35.3063C348.291 36.0336 349.371 43.605 344.106 47.1217C337.997 51.2021 330.999 46.1528 330.531 39.4723C330.044 32.5204 334.862 26.9183 341.186 24.7728C346.091 23.1082 351.862 23.8158 356.062 26.8487C361.738 30.9481 361.373 38.5219 366.294 42.507C377.98 51.9722 406.618 52.7572 402.486 31.1403C398.872 37.237 388.34 41.1483 387.093 30.5451C385.74 19.0231 401.011 17.9965 407.051 24.6556C415.431 33.897 408.929 48.0145 398.915 52.6245C392.616 55.524 385.225 54.5111 378.68 53.1607V53.1606ZM118.601 31.1403H118.006C113.885 52.6953 143.328 52.4804 154.769 42.0856C159.277 37.991 158.858 30.8731 164.43 26.8487C168.63 23.8158 174.401 23.1082 179.306 24.7728C185.63 26.9183 190.448 32.5204 189.961 39.4723C189.492 46.1528 182.494 51.2021 176.385 47.1217C171.121 43.605 172.2 36.0336 178.711 35.3063C176.748 28.7835 168.982 33.3608 166.5 37.1007C162.688 42.8444 166.045 50.173 170.319 54.6396C184.027 68.9672 207.956 62.2016 221.561 51.6728C229.126 45.8184 235.216 37.3602 245.367 36.074C253.854 34.9992 266.494 46.6456 256.053 53.2452C249.875 57.1505 241.668 47.2931 248.408 43.8365C253.756 41.0941 256.418 50.3034 249.533 51.3753V51.9704C253.661 52.6399 259.615 50.0171 257.705 44.8286C252.152 29.7447 236.905 44.3632 231.084 50.1849C237.596 48.1549 239.619 39.8943 247.748 39.4723C244.81 44.0544 240.124 45.7225 239.521 51.9704C239.097 56.3661 243.99 62.8181 241.771 66.761C240.199 69.5534 236.645 68.4017 234.782 66.6442C231.581 63.6244 231.679 58.9966 231.679 54.946H231.084C229.937 59.7864 227.978 66.3312 223.888 69.4837C221.421 71.3858 215.548 71.9797 215.87 67.4352C216.211 62.646 221.279 61.101 224.483 58.5621C227.191 56.4172 229.062 53.5284 231.084 50.78C224.496 55.6739 219.744 61.9212 212.039 65.4748C198.193 71.8595 177.713 72.5802 165.618 61.9777C160.526 57.5147 158.733 52.5655 156.095 46.614C145.446 65.3623 120.106 74.5031 99.5563 72.8516C88.1807 71.9369 76.1552 66.6817 73.5401 54.3509C72.1594 47.8376 73.3217 41.4327 78.2346 36.6066C85.7037 29.2703 99.8128 28.9197 105.298 38.8795C109.745 46.9532 100.575 61.4605 91.2797 55.3365C84.0695 50.586 88.4658 41.9367 95.9855 41.8528V41.2577C87.9308 38.1778 78.4971 45.56 82.8922 54.3509C86.4518 61.4694 93.9417 64.3696 101.342 65.1623C116.647 66.8019 128.646 60.5743 141.812 53.7557C135.633 53.204 129.557 55.5442 123.362 53.3392C112.109 49.3338 103.797 32.9471 114.49 23.6289C120.916 18.0297 134.666 19.7551 133.398 30.5451C132.324 39.6806 120.96 39.08 118.601 31.1402V31.1403ZM261.436 39.4722C265.865 32.2198 274.623 31.4015 282.266 33.0512C297.154 36.265 307.943 49.0083 323.331 50.8092C329.342 51.5126 335.232 49.5772 341.183 50.2497C343.58 50.5205 345.793 52.2518 344.884 54.9211C342.119 63.0347 325.15 60.3809 319.165 58.9716C303.015 55.1686 292.791 36.0906 276.315 34.7664C270.281 34.282 266.732 37.4678 261.436 39.4722ZM259.055 39.4722C253.76 37.4678 250.21 34.282 244.177 34.7664C227.569 36.1013 217.689 55.493 201.326 58.9418C195.252 60.222 178.433 63.2102 175.608 54.9211C174.58 51.9061 177.357 50.367 179.902 50.2111C185.936 49.8415 191.68 51.5025 197.755 50.7479C212.865 48.8708 223.551 36.2192 238.225 33.0512C245.912 31.392 254.523 32.2543 259.055 39.4722ZM289.408 50.78L290.003 51.3752L289.408 50.78Z" fill="url(#paint2_angular)" stroke="url(#paint3_angular)" stroke-width="2" mask="url(#path-3-inside-1)"/>
<defs>
<radialGradient id="paint0_angular" cx="0" cy="0" r="1" gradientUnits="userSpaceOnUse" gradientTransform="translate(472.968 479.182) rotate(180) scale(175.518 334.82)">
<stop stop-color="#F0AD4E"/>
<stop offset="0.496945" stop-color="#F0AD4E"/>
<stop offset="0.747741" stop-color="#FED859"/>
</radialGradient>
<radialGradient id="paint1_angular" cx="0" cy="0" r="1" gradientUnits="userSpaceOnUse" gradientTransform="translate(36.6542 260.53) rotate(90) scale(82.0617 30.2168)">
<stop stop-color="#F0AD4E"/>
<stop offset="0.496945" stop-color="#F0AD4E"/>
<stop offset="0.747741" stop-color="#FED859"/>
</radialGradient>
<radialGradient id="paint2_angular" cx="0" cy="0" r="1" gradientUnits="userSpaceOnUse" gradientTransform="translate(260.499 36.6855) scale(82.0617 30.2168)">
<stop stop-color="#F0AD4E"/>
<stop offset="0.496945" stop-color="#F0AD4E"/>
<stop offset="0.747741" stop-color="#FED859"/>
</radialGradient>
<radialGradient id="paint3_angular" cx="0" cy="0" r="1" gradientUnits="userSpaceOnUse" gradientTransform="translate(260.499 36.6855) scale(82.0617 30.2168)">
<stop stop-color="#F0AD4E"/>
<stop offset="0.496945" stop-color="#F0AD4E"/>
<stop offset="0.747741" stop-color="#FED859"/>
</radialGradient>
</defs>
</svg>
