<svg width="875" height="883" viewBox="0 0 875 883" fill="none" xmlns="http://www.w3.org/2000/svg">
<rect x="5" y="5.03125" width="791" height="799" rx="15" stroke="url(#paint0_angular)" stroke-width="10"/>
<path d="M623.363 861.646C624.374 867.517 625.124 872.966 625.809 878.896C625.98 880.38 626.756 882.423 628.666 881.981C631.101 881.418 631.095 877.849 631.095 875.929C631.095 871.203 628.231 863.226 623.363 861.646ZM603.128 861.646C598.26 863.226 595.396 871.203 595.396 875.929C595.396 877.849 595.389 881.418 597.825 881.981C599.736 882.423 600.511 880.38 600.683 878.896C601.367 872.966 602.118 867.517 603.128 861.646ZM613.246 842.601C608.786 849.232 603.445 860.602 604.428 868.787C604.961 873.223 608.214 878.513 613.246 878.513C618.278 878.513 621.531 873.223 622.063 868.787C623.039 860.654 617.681 849.194 613.246 842.601ZM612.651 847.957H613.841C616.069 852.965 618.934 859.827 617.623 865.386C617.142 867.429 615.793 870.79 613.246 870.79C610.663 870.79 609.342 867.379 608.868 865.318C607.548 859.574 610.629 853.198 612.651 847.957ZM618.007 849.743C621.882 856.704 627.663 863.712 635.266 866.717C637.441 867.577 643.264 868.856 644.282 865.726C644.984 863.569 642.938 862.076 641.209 861.385C635.843 859.242 630.663 858.213 625.744 854.885C623.208 853.17 621.149 849.694 618.007 849.743ZM613.841 855.099H612.651C611.058 857.623 606.776 867.325 613.246 867.325C619.716 867.325 615.433 857.623 613.841 855.099ZM608.485 849.743C605.342 849.694 603.283 853.17 600.748 854.885C595.828 858.213 590.649 859.242 585.283 861.385C583.554 862.076 581.508 863.569 582.209 865.726C583.228 868.856 589.05 867.577 591.225 866.717C598.829 863.712 604.609 856.704 608.485 849.743ZM612.651 862.241V857.48H613.841V862.241H612.651ZM731.68 828.913V828.318C744.822 821.48 756.857 815.273 772.15 816.911C779.55 817.704 787.04 820.604 790.599 827.722C794.995 836.513 785.561 843.895 777.506 840.816V840.22C785.026 840.137 789.422 831.487 782.212 826.737C772.885 820.592 763.745 835.114 768.194 843.194C773.892 853.543 788.35 852.646 795.776 844.878C800.331 840.114 801.272 833.953 799.951 827.722C797.336 815.392 785.311 810.136 773.935 809.222C753.406 807.572 728.035 816.728 717.396 835.459C714.758 829.508 712.965 824.559 707.874 820.096C695.796 809.509 675.289 810.218 661.453 816.598C654.037 820.018 649.312 825.906 643.003 830.698C646.393 825.358 656.454 821.136 657.538 815.227C658.437 810.325 652.356 810.467 649.603 812.59C645.486 815.763 643.536 822.254 642.408 827.127H641.813C641.813 822.992 641.994 818.523 638.71 815.429C636.846 813.673 633.293 812.519 631.72 815.312C629.501 819.255 634.394 825.707 633.97 830.103C633.349 836.555 628.766 837.887 625.744 842.601C633.872 842.179 635.895 833.918 642.408 831.888C636.586 837.71 621.339 852.329 615.786 837.245C613.876 832.056 619.83 829.433 623.958 830.103V830.698C617.074 831.77 619.736 840.979 625.084 838.237C631.824 834.78 623.617 824.922 617.438 828.828C607.062 835.387 619.581 847.182 628.124 845.993C638.305 844.575 644.315 836.296 651.931 830.4C665.519 819.881 689.476 813.119 703.173 827.434C707.447 831.9 710.803 839.229 706.991 844.973C704.51 848.712 696.743 853.29 694.781 846.767C701.291 846.04 702.371 838.468 697.106 834.952C690.997 830.871 683.999 835.92 683.531 842.601C683.044 849.553 687.862 855.155 694.186 857.3C699.091 858.965 704.862 858.257 709.062 855.225C714.738 851.125 714.373 843.551 719.294 839.566C730.98 830.101 759.618 829.316 755.486 850.933C751.872 844.836 741.34 840.925 740.093 851.528C738.74 863.05 754.011 864.077 760.051 857.418C768.431 848.176 761.929 834.059 751.915 829.449C745.616 826.549 738.225 827.562 731.68 828.913V828.913ZM471.601 850.933H471.006C466.885 829.378 496.328 829.593 507.769 839.988C512.277 844.082 511.858 851.2 517.43 855.225C521.63 858.257 527.401 858.965 532.306 857.3C538.63 855.155 543.448 849.553 542.961 842.601C542.492 835.92 535.494 830.871 529.385 834.952C524.121 838.468 525.2 846.04 531.711 846.767C529.748 853.29 521.982 848.712 519.5 844.973C515.688 839.229 519.045 831.9 523.319 827.434C537.027 813.106 560.956 819.872 574.561 830.4C582.126 836.255 588.216 844.713 598.367 845.999C606.854 847.074 619.494 835.428 609.053 828.828C602.875 824.923 594.668 834.78 601.408 838.237C606.756 840.979 609.418 831.77 602.533 830.698V830.103C606.661 829.433 612.615 832.056 610.705 837.245C605.152 852.329 589.905 837.71 584.084 831.888C590.596 833.918 592.619 842.179 600.748 842.601C597.81 838.019 593.124 836.351 592.521 830.103C592.097 825.707 596.99 819.255 594.771 815.312C593.199 812.52 589.645 813.671 587.782 815.429C584.581 818.449 584.679 823.077 584.679 827.127H584.084C582.937 822.287 580.978 815.742 576.888 812.59C574.421 810.687 568.548 810.094 568.87 814.638C569.211 819.427 574.279 820.972 577.483 823.511C580.191 825.656 582.062 828.545 584.084 831.293C577.496 826.399 572.744 820.152 565.039 816.598C551.193 810.214 530.713 809.493 518.618 820.096C513.526 824.559 511.733 829.508 509.095 835.459C498.446 816.711 473.106 807.57 452.556 809.222C441.181 810.136 429.155 815.392 426.54 827.722C425.159 834.236 426.322 840.641 431.235 845.467C438.704 852.803 452.813 853.154 458.298 843.194C462.745 835.12 453.575 820.613 444.28 826.737C437.069 831.487 441.466 840.137 448.985 840.22V840.816C440.931 843.895 431.497 836.513 435.892 827.722C439.452 820.604 446.942 817.704 454.342 816.911C469.647 815.271 481.646 821.499 494.812 828.318C488.633 828.869 482.557 826.529 476.362 828.734C465.109 832.739 456.797 849.126 467.49 858.444C473.916 864.044 487.666 862.318 486.398 851.528C485.324 842.393 473.96 842.993 471.601 850.933V850.933ZM614.436 842.601C618.865 849.853 627.623 850.672 635.266 849.022C650.154 845.808 660.943 833.065 676.331 831.264C682.342 830.561 688.232 832.496 694.183 831.824C696.58 831.553 698.793 829.821 697.884 827.152C695.119 819.039 678.15 821.692 672.165 823.102C656.015 826.905 645.791 845.983 629.315 847.307C623.281 847.791 619.732 844.605 614.436 842.601ZM612.055 842.601C606.76 844.605 603.21 847.791 597.177 847.307C580.569 845.972 570.689 826.58 554.326 823.131C548.252 821.851 531.433 818.863 528.608 827.152C527.58 830.167 530.357 831.706 532.902 831.862C538.936 832.232 544.68 830.571 550.755 831.325C565.865 833.202 576.551 845.854 591.225 849.022C598.912 850.681 607.523 849.819 612.055 842.601ZM642.408 831.293L643.003 830.698L642.408 831.293Z" fill="url(#paint1_angular)"/>
<path d="M853.614 604.168C859.486 603.157 864.934 602.407 870.864 601.723C872.348 601.551 874.391 600.776 873.949 598.865C873.386 596.43 869.818 596.436 867.898 596.436C863.172 596.436 855.194 599.3 853.614 604.168ZM853.614 624.403C855.194 629.271 863.172 632.135 867.898 632.135C869.818 632.135 873.386 632.142 873.949 629.706C874.391 627.795 872.348 627.02 870.864 626.848C864.934 626.164 859.486 625.414 853.614 624.403ZM834.57 614.286C841.2 618.746 852.571 624.086 860.756 623.103C865.191 622.571 870.481 619.317 870.481 614.286C870.481 609.254 865.191 606.001 860.756 605.468C852.623 604.492 841.163 609.851 834.57 614.286ZM839.926 614.881V613.69C844.933 611.462 851.795 608.598 857.355 609.908C859.398 610.39 862.758 611.738 862.758 614.286C862.758 616.868 859.347 618.189 857.286 618.663C851.542 619.983 845.166 616.902 839.926 614.881ZM841.711 609.524C848.673 605.649 855.681 599.869 858.685 592.265C859.545 590.09 860.825 584.268 857.694 583.249C855.537 582.548 854.044 584.594 853.354 586.323C851.21 591.688 850.181 596.868 846.853 601.787C845.139 604.323 841.662 606.382 841.711 609.524ZM847.068 613.69V614.881C849.592 616.473 859.294 620.755 859.294 614.286C859.294 607.816 849.592 612.098 847.068 613.69ZM841.711 619.047C841.662 622.189 845.139 624.248 846.853 626.784C850.181 631.703 851.21 636.883 853.354 642.248C854.044 643.977 855.537 646.023 857.694 645.322C860.825 644.304 859.545 638.481 858.685 636.306C855.681 628.702 848.673 622.922 841.711 619.047ZM854.209 614.881H849.448V613.69H854.209V614.881ZM820.881 495.852H820.286C813.448 482.71 807.242 470.674 808.879 455.382C809.672 447.982 812.572 440.492 819.691 436.932C828.482 432.537 835.864 441.971 832.784 450.025H832.189C832.105 442.506 823.456 438.109 818.705 445.319C812.56 454.647 827.083 463.786 835.162 459.338C845.512 453.64 844.614 439.182 836.847 431.755C832.083 427.2 825.921 426.259 819.691 427.58C807.36 430.195 802.105 442.221 801.19 453.596C799.54 474.126 808.697 499.496 827.428 510.135C821.476 512.773 816.527 514.566 812.064 519.657C801.478 531.735 802.186 552.242 808.567 566.079C811.987 573.494 817.874 578.219 822.667 584.528C817.327 581.138 813.105 571.077 807.195 569.993C802.294 569.094 802.435 575.175 804.558 577.928C807.732 582.045 814.222 583.996 819.096 585.123V585.719C814.96 585.719 810.492 585.537 807.398 588.822C805.642 590.686 804.487 594.238 807.281 595.811C811.224 598.03 817.676 593.138 822.071 593.561C828.524 594.183 829.856 598.765 834.569 601.787C834.147 593.659 825.887 591.636 823.857 585.123C829.679 590.945 844.297 606.192 829.213 611.745C824.025 613.655 821.402 607.701 822.071 603.573H822.666C823.738 610.458 832.948 607.795 830.205 602.448C826.749 595.707 816.891 603.915 820.797 610.093C827.355 620.47 839.151 607.95 837.961 599.407C836.544 589.226 828.264 583.216 822.369 575.6C811.85 562.013 805.087 538.055 819.402 524.358C823.869 520.085 831.197 516.728 836.941 520.54C840.681 523.022 845.258 530.788 838.735 532.751C838.008 526.24 830.437 525.161 826.92 530.425C822.84 536.534 827.889 543.532 834.569 544.001C841.521 544.487 847.123 539.67 849.269 533.346C850.934 528.441 850.226 522.669 847.193 518.469C843.094 512.794 835.52 513.158 831.535 508.238C822.07 496.551 821.285 467.913 842.901 472.046C836.805 475.659 832.893 486.192 843.497 487.438C855.019 488.791 856.045 473.52 849.386 467.48C840.145 459.1 826.027 465.603 821.417 475.617C818.518 481.916 819.531 489.306 820.881 495.852H820.881ZM842.901 755.93V756.525C821.346 760.646 821.561 731.204 831.956 719.762C836.051 715.254 843.169 715.673 847.193 710.102C850.226 705.902 850.934 700.131 849.269 695.225C847.123 688.901 841.521 684.084 834.569 684.57C827.889 685.039 822.84 692.037 826.92 698.146C830.437 703.41 838.008 702.331 838.735 695.82C845.258 697.783 840.681 705.549 836.941 708.031C831.197 711.843 823.869 708.486 819.402 704.213C805.075 690.504 811.84 666.576 822.369 652.971C828.223 645.405 836.682 639.315 837.968 629.164C839.043 620.677 827.396 608.037 820.797 618.478C816.891 624.657 826.749 632.864 830.205 626.124C832.948 620.776 823.738 618.114 822.666 624.998H822.071C821.402 620.87 824.025 614.916 829.213 616.826C844.297 622.379 829.679 637.626 823.857 643.448C825.887 636.935 834.147 634.912 834.569 626.784C829.987 629.721 828.319 634.407 822.071 635.01C817.676 635.434 811.224 630.541 807.281 632.76C804.488 634.332 805.64 637.887 807.398 639.749C810.417 642.951 815.045 642.852 819.096 642.853V643.448C814.255 644.595 807.711 646.553 804.558 650.643C802.656 653.11 802.062 658.983 806.607 658.661C811.396 658.32 812.941 653.252 815.48 650.048C817.625 647.341 820.513 645.469 823.262 643.448C818.368 650.035 812.121 654.787 808.567 662.492C802.182 676.338 801.462 696.818 812.064 708.914C816.527 714.005 821.476 715.798 827.428 718.436C808.679 729.085 799.539 754.426 801.19 774.975C802.105 786.351 807.36 798.376 819.691 800.991C826.204 802.372 832.609 801.21 837.435 796.297C844.771 788.828 845.122 774.718 835.162 769.234C827.089 764.787 812.581 773.956 818.705 783.252C823.456 790.462 832.105 786.065 832.189 778.546H832.784C835.864 786.6 828.482 796.034 819.691 791.639C812.572 788.079 809.672 780.59 808.879 773.189C807.24 757.884 813.467 745.885 820.286 732.72C820.838 738.898 818.498 744.974 820.703 751.169C824.708 762.423 841.095 770.735 850.413 760.041C856.012 753.615 854.287 739.866 843.497 741.133C834.361 742.207 834.962 753.572 842.902 755.93H842.901ZM834.57 613.095C841.822 608.666 842.64 599.909 840.991 592.265C837.777 577.378 825.033 566.588 823.233 551.2C822.529 545.189 824.465 539.299 823.792 533.348C823.521 530.951 821.79 528.738 819.121 529.647C811.007 532.413 813.661 549.381 815.07 555.366C818.873 571.516 837.951 581.741 839.275 598.217C839.76 604.25 836.574 607.8 834.57 613.095ZM834.57 615.476C836.574 620.771 839.76 624.321 839.275 630.354C837.94 646.963 818.549 656.843 815.1 673.205C813.82 679.28 810.832 696.098 819.121 698.924C822.136 699.951 823.675 697.174 823.831 694.63C824.2 688.595 822.539 682.852 823.294 676.776C825.171 661.666 837.823 650.98 840.991 636.306C842.65 628.619 841.787 620.008 834.57 615.476ZM823.262 585.123L822.667 584.528L823.262 585.123Z" fill="url(#paint2_angular)"/>
<defs>
<radialGradient id="paint0_angular" cx="0" cy="0" r="1" gradientUnits="userSpaceOnUse" gradientTransform="translate(399.968 406.182) rotate(180) scale(175.518 334.82)">
<stop stop-color="#F0AD4E"/>
<stop offset="0.496945" stop-color="#F0AD4E"/>
<stop offset="0.747741" stop-color="#FED859"/>
</radialGradient>
<radialGradient id="paint1_angular" cx="0" cy="0" r="1" gradientUnits="userSpaceOnUse" gradientTransform="translate(613.499 845.388) scale(82.0617 30.2168)">
<stop stop-color="#F0AD4E"/>
<stop offset="0.496945" stop-color="#F0AD4E"/>
<stop offset="0.747741" stop-color="#FED859"/>
</radialGradient>
<radialGradient id="paint2_angular" cx="0" cy="0" r="1" gradientUnits="userSpaceOnUse" gradientTransform="translate(837.356 614.033) rotate(-90) scale(82.0617 30.2168)">
<stop stop-color="#F0AD4E"/>
<stop offset="0.496945" stop-color="#F0AD4E"/>
<stop offset="0.747741" stop-color="#FED859"/>
</radialGradient>
</defs>
</svg>
