<svg width="4057" height="100" viewBox="0 0 4057 100" fill="none" xmlns="http://www.w3.org/2000/svg">
<rect x="1" y="1" width="4055" height="98" stroke="url(#paint0_angular)" stroke-width="2"/>
<rect width="337" height="100" fill="url(#paint1_angular)"/>
<path d="M58.7715 58.7236H45.002L42.1211 67H35.7002L49.1279 31.4531H54.6699L68.1221 67H61.6768L58.7715 58.7236ZM46.7354 53.7432H57.0381L51.8867 38.9971L46.7354 53.7432ZM85.2363 53.3037H78.3516V67H72.1748V31.4531H84.6748C88.7764 31.4531 91.9421 32.3727 94.1719 34.2119C96.4017 36.0511 97.5166 38.7122 97.5166 42.1953C97.5166 44.5716 96.9388 46.5654 95.7832 48.1768C94.6439 49.7718 93.0488 51.0007 90.998 51.8633L98.9814 66.6826V67H92.3652L85.2363 53.3037ZM78.3516 48.3477H84.6992C86.7826 48.3477 88.4102 47.8268 89.582 46.7852C90.7539 45.7272 91.3398 44.2868 91.3398 42.4639C91.3398 40.5596 90.7946 39.0866 89.7041 38.0449C88.6299 37.0033 87.0186 36.4661 84.8701 36.4336H78.3516V48.3477ZM127.839 36.4336H116.755V67H110.627V36.4336H99.6406V31.4531H127.839V36.4336ZM160.798 58.2109L166.267 31.4531H172.395L164.191 67H158.283L151.521 41.0479L144.611 67H138.679L130.476 31.4531H136.604L142.121 58.1621L148.908 31.4531H154.084L160.798 58.2109ZM205.28 50.1543C205.28 53.6374 204.678 56.6973 203.474 59.334C202.269 61.9544 200.544 63.9727 198.298 65.3887C196.068 66.7884 193.496 67.4883 190.583 67.4883C187.702 67.4883 185.131 66.7884 182.868 65.3887C180.622 63.9727 178.881 61.9626 177.644 59.3584C176.423 56.7542 175.804 53.7513 175.788 50.3496V48.3477C175.788 44.8809 176.398 41.821 177.619 39.168C178.856 36.515 180.59 34.4886 182.819 33.0889C185.065 31.6729 187.637 30.9648 190.534 30.9648C193.431 30.9648 195.995 31.6647 198.225 33.0645C200.471 34.4479 202.204 36.4499 203.425 39.0703C204.646 41.6745 205.264 44.71 205.28 48.1768V50.1543ZM199.104 48.2988C199.104 44.36 198.355 41.3408 196.857 39.2412C195.376 37.1416 193.269 36.0918 190.534 36.0918C187.865 36.0918 185.773 37.1416 184.26 39.2412C182.762 41.3245 181.997 44.2786 181.965 48.1035V50.1543C181.965 54.0605 182.722 57.0798 184.235 59.2119C185.765 61.3441 187.881 62.4102 190.583 62.4102C193.317 62.4102 195.417 61.3685 196.882 59.2852C198.363 57.2018 199.104 54.1582 199.104 50.1543V48.2988ZM224.494 53.3037H217.609V67H211.433V31.4531H223.933C228.034 31.4531 231.2 32.3727 233.43 34.2119C235.66 36.0511 236.774 38.7122 236.774 42.1953C236.774 44.5716 236.197 46.5654 235.041 48.1768C233.902 49.7718 232.307 51.0007 230.256 51.8633L238.239 66.6826V67H231.623L224.494 53.3037ZM217.609 48.3477H223.957C226.04 48.3477 227.668 47.8268 228.84 46.7852C230.012 45.7272 230.598 44.2868 230.598 42.4639C230.598 40.5596 230.052 39.0866 228.962 38.0449C227.888 37.0033 226.276 36.4661 224.128 36.4336H217.609V48.3477ZM252.839 51.6436L248.811 55.916V67H242.634V31.4531H248.811V48.1279L252.229 43.9043L262.629 31.4531H270.1L256.892 47.2002L270.856 67H263.532L252.839 51.6436ZM292.756 57.8447C292.756 56.2822 292.202 55.0778 291.096 54.2314C290.005 53.3851 288.028 52.5306 285.163 51.668C282.299 50.8053 280.02 49.8451 278.327 48.7871C275.088 46.7526 273.469 44.0996 273.469 40.8281C273.469 37.9635 274.632 35.6035 276.96 33.748C279.304 31.8926 282.339 30.9648 286.066 30.9648C288.54 30.9648 290.746 31.4206 292.683 32.332C294.619 33.2435 296.141 34.5456 297.248 36.2383C298.355 37.9147 298.908 39.7783 298.908 41.8291H292.756C292.756 39.9736 292.17 38.5251 290.998 37.4834C289.842 36.4255 288.182 35.8965 286.018 35.8965C283.999 35.8965 282.429 36.3278 281.306 37.1904C280.199 38.0531 279.646 39.2575 279.646 40.8037C279.646 42.1058 280.248 43.1963 281.452 44.0752C282.657 44.9378 284.642 45.7842 287.409 46.6143C290.176 47.4281 292.398 48.3639 294.074 49.4219C295.751 50.4635 296.979 51.668 297.761 53.0352C298.542 54.3861 298.933 55.973 298.933 57.7959C298.933 60.7581 297.793 63.1182 295.515 64.876C293.252 66.6175 290.176 67.4883 286.286 67.4883C283.715 67.4883 281.346 67.0163 279.182 66.0723C277.033 65.112 275.357 63.7936 274.152 62.1172C272.964 60.4408 272.37 58.4876 272.37 56.2578H278.547C278.547 58.276 279.214 59.8385 280.549 60.9453C281.883 62.0521 283.796 62.6055 286.286 62.6055C288.435 62.6055 290.046 62.1742 291.12 61.3115C292.211 60.4326 292.756 59.277 292.756 57.8447Z" fill="white"/>
<defs>
<radialGradient id="paint0_angular" cx="0" cy="0" r="1" gradientUnits="userSpaceOnUse" gradientTransform="translate(2025.81 50.2041) rotate(180) scale(888.984 41.3869)">
<stop stop-color="#F0AD4E"/>
<stop offset="0.496945" stop-color="#F0AD4E"/>
<stop offset="0.747741" stop-color="#FED859"/>
</radialGradient>
<radialGradient id="paint1_angular" cx="0" cy="0" r="1" gradientUnits="userSpaceOnUse" gradientTransform="translate(168.276 50.2041) rotate(180) scale(73.8446 41.3869)">
<stop stop-color="#F0AD4E"/>
<stop offset="0.496945" stop-color="#F0AD4E"/>
<stop offset="0.747741" stop-color="#FED859"/>
</radialGradient>
</defs>
</svg>
